P3
39 80
255
16 16 16
 16 16 16
 17 17 17
 17 17 17
 17 17 17
 17 17 17
 17 17 17
 17 17 17
 17 17 17
 18 18 18
 18 18 18
 18 18 18
 18 18 18
 18 18 18
 18 18 18
 19 19 19
 19 19 19
 20 20 20
 19 19 19
 19 19 19
 20 20 20
 20 20 20
 20 20 20
 21 21 21
 20 20 20
 20 20 20
 21 21 21
 21 21 21
 21 21 21
 21 21 21
 21 21 21
 21 21 21
 22 22 22
 22 22 22
 22 22 22
 22 22 22
 22 22 22
 22 22 22
 22 22 22
 16 16 16
 16 16 16
 17 17 17
 17 17 17
 17 17 17
 17 17 17
 17 17 17
 17 17 17
 17 17 17
 18 18 18
 18 18 18
 18 18 18
 18 18 18
 19 19 19
 18 18 18
 19 19 19
 19 19 19
 19 19 19
 20 20 20
 19 19 19
 20 20 20
 20 20 20
 20 20 20
 21 21 21
 20 20 20
 21 21 21
 21 21 21
 21 21 21
 21 21 21
 21 21 21
 21 21 21
 21 21 21
 21 21 21
 22 22 22
 22 22 22
 23 23 23
 22 22 22
 22 22 22
 22 22 22
 16 16 16
 16 16 16
 17 17 17
 17 17 17
 17 17 17
 17 17 17
 17 17 17
 17 17 17
 17 17 17
 18 18 18
 18 18 18
 18 18 18
 18 18 18
 18 18 18
 18 18 18
 19 19 19
 19 19 19
 20 20 20
 19 19 19
 19 19 19
 20 20 20
 20 20 20
 20 20 20
 20 20 20
 20 20 20
 21 21 21
 20 20 20
 21 21 21
 21 21 21
 21 21 21
 21 21 21
 21 21 21
 21 21 21
 22 22 22
 22 22 22
 22 22 22
 23 23 23
 22 22 22
 22 22 22
 16 16 16
 16 16 16
 16 16 16
 17 17 17
 17 17 17
 17 17 17
 17 17 17
 18 18 18
 17 17 17
 18 18 18
 18 18 18
 18 18 18
 18 18 18
 19 19 19
 18 18 18
 19 19 19
 19 19 19
 19 19 19
 20 20 20
 19 19 19
 19 19 19
 20 20 20
 20 20 20
 20 20 20
 21 21 21
 20 20 20
 20 20 20
 21 21 21
 22 22 22
 22 22 22
 22 22 22
 23 23 23
 21 21 21
 22 22 22
 22 22 22
 22 22 22
 23 23 23
 22 22 22
 22 22 22
 16 16 16
 16 16 16
 16 16 16
 17 17 17
 17 17 17
 17 17 17
 17 17 17
 17 17 17
 17 17 17
 18 18 18
 18 18 18
 18 18 18
 18 18 18
 18 18 18
 18 18 18
 19 19 19
 19 19 19
 19 19 19
 20 20 20
 19 19 19
 20 20 20
 20 20 20
 20 20 20
 21 21 21
 20 20 20
 20 20 20
 21 21 21
 22 22 22
 21 21 21
 21 21 21
 21 21 21
 21 21 21
 23 23 23
 22 22 22
 22 22 22
 22 22 22
 22 22 22
 23 23 23
 22 22 22
 17 17 17
 16 16 16
 16 16 16
 17 17 17
 17 17 17
 17 17 17
 17 17 17
 17 17 17
 17 17 17
 18 18 18
 18 18 18
 18 18 18
 18 18 18
 18 18 18
 18 18 18
 19 19 19
 19 19 19
 19 19 19
 19 19 19
 20 20 20
 19 19 19
 20 20 20
 20 20 20
 21 21 21
 20 20 20
 21 21 21
 21 21 21
 21 21 21
 21 21 21
 21 21 21
 21 21 21
 21 21 21
 21 21 21
 22 22 22
 22 22 22
 22 22 22
 22 22 22
 23 23 23
 22 22 22
 16 16 16
 16 16 16
 16 16 16
 17 17 17
 17 17 17
 17 17 17
 17 17 17
 18 18 18
 17 17 17
 18 18 18
 18 18 18
 18 18 18
 18 18 18
 19 19 19
 18 18 18
 19 19 19
 19 19 19
 19 19 19
 20 20 20
 20 20 20
 19 19 19
 20 20 20
 20 20 20
 21 21 21
 20 20 20
 22 22 22
 20 20 20
 21 21 21
 21 21 21
 21 21 21
 21 21 21
 21 21 21
 21 21 21
 21 21 21
 22 22 22
 22 22 22
 22 22 22
 22 22 22
 23 23 23
 16 16 16
 16 16 16
 16 16 16
 17 17 17
 17 17 17
 17 17 17
 17 17 17
 17 17 17
 17 17 17
 18 18 18
 18 18 18
 18 18 18
 18 18 18
 18 18 18
 19 19 19
 19 19 19
 19 19 19
 19 19 19
 19 19 19
 19 19 19
 20 20 20
 20 20 20
 21 21 21
 20 20 20
 21 21 21
 20 20 20
 20 20 20
 22 22 22
 22 22 22
 22 22 22
 23 23 23
 22 22 22
 21 21 21
 21 21 21
 22 22 22
 23 23 23
 22 22 22
 22 22 22
 23 23 23
 16 16 16
 16 16 16
 16 16 16
 17 17 17
 17 17 17
 17 17 17
 17 17 17
 17 17 17
 17 17 17
 18 18 18
 18 18 18
 18 18 18
 18 18 18
 19 19 19
 18 18 18
 18 18 18
 19 19 19
 19 19 19
 19 19 19
 20 20 20
 20 20 20
 19 19 19
 20 20 20
 21 21 21
 21 21 21
 20 20 20
 23 23 23
 20 20 20
 21 21 21
 21 21 21
 21 21 21
 22 22 22
 23 23 23
 21 21 21
 22 22 22
 22 22 22
 22 22 22
 22 22 22
 22 22 22
 16 16 16
 17 17 17
 16 16 16
 17 17 17
 17 17 17
 17 17 17
 17 17 17
 17 17 17
 18 18 18
 17 17 17
 18 18 18
 18 18 18
 18 18 18
 18 18 18
 19 19 19
 18 18 18
 19 19 19
 19 19 19
 19 19 19
 20 20 20
 19 19 19
 20 20 20
 20 20 20
 21 21 21
 20 20 20
 22 22 22
 20 20 20
 20 20 20
 21 21 21
 21 21 21
 21 21 21
 21 21 21
 21 21 21
 23 23 23
 22 22 22
 22 22 22
 22 22 22
 22 22 22
 22 22 22
 16 16 16
 16 16 16
 16 16 16
 17 17 17
 17 17 17
 17 17 17
 17 17 17
 17 17 17
 17 17 17
 17 17 17
 18 18 18
 18 18 18
 18 18 18
 19 19 19
 18 18 18
 18 18 18
 19 19 19
 19 19 19
 19 19 19
 19 19 19
 20 20 20
 20 20 20
 20 20 20
 21 21 21
 22 22 22
 20 20 20
 20 20 20
 22 22 22
 22 22 22
 23 23 23
 23 23 23
 21 21 21
 21 21 21
 21 21 21
 23 23 23
 22 22 22
 22 22 22
 23 23 23
 22 22 22
 16 16 16
 16 16 16
 16 16 16
 17 17 17
 17 17 17
 17 17 17
 17 17 17
 17 17 17
 17 17 17
 17 17 17
 18 18 18
 18 18 18
 18 18 18
 18 18 18
 19 19 19
 18 18 18
 19 19 19
 19 19 19
 20 20 20
 20 20 20
 19 19 19
 20 20 20
 20 20 20
 20 20 20
 21 21 21
 20 20 20
 22 22 22
 21 21 21
 21 21 21
 21 21 21
 21 21 21
 23 23 23
 22 22 22
 21 21 21
 22 22 22
 22 22 22
 22 22 22
 23 23 23
 22 22 22
 16 16 16
 16 16 16
 17 17 17
 16 16 16
 17 17 17
 17 17 17
 17 17 17
 17 17 17
 18 18 18
 17 17 17
 18 18 18
 18 18 18
 18 18 18
 19 19 19
 18 18 18
 18 18 18
 19 19 19
 19 19 19
 20 20 20
 20 20 20
 20 20 20
 19 19 19
 20 20 20
 21 21 21
 20 20 20
 23 23 23
 20 20 20
 20 20 20
 20 20 20
 21 21 21
 21 21 21
 21 21 21
 22 22 22
 22 22 22
 21 21 21
 22 22 22
 22 22 22
 22 22 22
 22 22 22
 16 16 16
 16 16 16
 16 16 16
 16 16 16
 17 17 17
 17 17 17
 17 17 17
 17 17 17
 17 17 17
 17 17 17
 18 18 18
 18 18 18
 18 18 18
 18 18 18
 19 19 19
 18 18 18
 19 19 19
 19 19 19
 20 20 20
 20 20 20
 20 20 20
 20 20 20
 20 20 20
 21 21 21
 22 22 22
 20 20 20
 21 21 21
 23 23 23
 23 23 23
 22 22 22
 23 23 23
 21 21 21
 21 21 21
 23 23 23
 21 21 21
 22 22 22
 22 22 22
 22 22 22
 23 23 23
 16 16 16
 16 16 16
 16 16 16
 16 16 16
 17 17 17
 17 17 17
 17 17 17
 18 18 18
 17 17 17
 18 18 18
 18 18 18
 18 18 18
 18 18 18
 19 19 19
 18 18 18
 19 19 19
 18 18 18
 19 19 19
 19 19 19
 20 20 20
 20 20 20
 20 20 20
 21 21 21
 20 20 20
 21 21 21
 21 21 21
 22 22 22
 20 20 20
 20 20 20
 21 21 21
 21 21 21
 23 23 23
 21 21 21
 21 21 21
 22 22 22
 21 21 21
 22 22 22
 22 22 22
 23 23 23
 16 16 16
 17 17 17
 16 16 16
 16 16 16
 17 17 17
 17 17 17
 17 17 17
 17 17 17
 17 17 17
 17 17 17
 18 18 18
 18 18 18
 18 18 18
 18 18 18
 19 19 19
 18 18 18
 18 18 18
 19 19 19
 20 20 20
 19 19 19
 20 20 20
 20 20 20
 20 20 20
 21 21 21
 20 20 20
 22 22 22
 21 21 21
 23 23 23
 23 23 23
 23 23 23
 22 22 22
 21 21 21
 23 23 23
 22 22 22
 22 22 22
 22 22 22
 22 22 22
 22 22 22
 22 22 22
 16 16 16
 16 16 16
 16 16 16
 17 17 17
 17 17 17
 17 17 17
 17 17 17
 18 18 18
 17 17 17
 17 17 17
 17 17 17
 18 18 18
 18 18 18
 19 19 19
 18 18 18
 19 19 19
 19 19 19
 19 19 19
 20 20 20
 20 20 20
 19 19 19
 20 20 20
 20 20 20
 21 21 21
 23 23 23
 21 21 21
 22 22 22
 20 20 20
 20 20 20
 21 21 21
 23 23 23
 23 23 23
 21 21 21
 22 22 22
 21 21 21
 22 22 22
 22 22 22
 22 22 22
 22 22 22
 16 16 16
 16 16 16
 16 16 16
 16 16 16
 17 17 17
 17 17 17
 17 17 17
 17 17 17
 17 17 17
 18 18 18
 17 17 17
 18 18 18
 18 18 18
 18 18 18
 19 19 19
 19 19 19
 18 18 18
 19 19 19
 20 20 20
 20 20 20
 21 21 21
 20 20 20
 20 20 20
 20 20 20
 21 21 21
 22 22 22
 21 21 21
 23 23 23
 23 23 23
 23 23 23
 22 22 22
 22 22 22
 22 22 22
 22 22 22
 22 22 22
 22 22 22
 21 21 21
 22 22 22
 22 22 22
 16 16 16
 16 16 16
 16 16 16
 16 16 16
 17 17 17
 17 17 17
 17 17 17
 17 17 17
 17 17 17
 17 17 17
 17 17 17
 18 18 18
 18 18 18
 19 19 19
 19 19 19
 18 18 18
 19 19 19
 19 19 19
 20 20 20
 20 20 20
 20 20 20
 21 21 21
 21 21 21
 21 21 21
 22 22 22
 22 22 22
 22 22 22
 20 20 20
 20 20 20
 20 20 20
 23 23 23
 23 23 23
 23 23 23
 21 21 21
 22 22 22
 21 21 21
 22 22 22
 22 22 22
 22 22 22
 16 16 16
 16 16 16
 17 17 17
 16 16 16
 17 17 17
 17 17 17
 17 17 17
 17 17 17
 18 18 18
 18 18 18
 17 17 17
 18 18 18
 18 18 18
 18 18 18
 18 18 18
 19 19 19
 19 19 19
 19 19 19
 19 19 19
 20 20 20
 20 20 20
 21 21 21
 20 20 20
 21 21 21
 22 22 22
 22 22 22
 23 23 23
 23 23 23
 23 23 23
 25 25 25
 22 22 22
 23 23 23
 21 21 21
 23 23 23
 22 22 22
 22 22 22
 22 22 22
 22 22 22
 22 22 22
 16 16 16
 16 16 16
 16 16 16
 16 16 16
 16 16 16
 17 17 17
 17 17 17
 17 17 17
 17 17 17
 17 17 17
 17 17 17
 18 18 18
 18 18 18
 19 19 19
 19 19 19
 19 19 19
 18 18 18
 19 19 19
 19 19 19
 20 20 20
 21 21 21
 20 20 20
 20 20 20
 21 21 21
 22 22 22
 23 23 23
 22 22 22
 23 23 23
 25 25 25
 21 21 21
 23 23 23
 23 23 23
 23 23 23
 22 22 22
 21 21 21
 22 22 22
 22 22 22
 21 21 21
 22 22 22
 16 16 16
 16 16 16
 16 16 16
 16 16 16
 16 16 16
 17 17 17
 17 17 17
 17 17 17
 18 18 18
 17 17 17
 18 18 18
 18 18 18
 18 18 18
 18 18 18
 18 18 18
 18 18 18
 19 19 19
 19 19 19
 19 19 19
 21 21 21
 20 20 20
 20 20 20
 22 22 22
 21 21 21
 22 22 22
 22 22 22
 23 23 23
 20 20 20
 20 20 20
 23 23 23
 24 24 24
 23 23 23
 22 22 22
 22 22 22
 23 23 23
 22 22 22
 22 22 22
 21 21 21
 22 22 22
 16 16 16
 16 16 16
 16 16 16
 17 17 17
 16 16 16
 17 17 17
 17 17 17
 17 17 17
 17 17 17
 17 17 17
 17 17 17
 18 18 18
 18 18 18
 18 18 18
 19 19 19
 19 19 19
 19 19 19
 19 19 19
 19 19 19
 21 21 21
 20 20 20
 22 22 22
 20 20 20
 22 22 22
 24 24 24
 24 24 24
 23 23 23
 25 25 25
 25 25 25
 25 25 25
 22 22 22
 23 23 23
 23 23 23
 23 23 23
 22 22 22
 22 22 22
 21 21 21
 22 22 22
 22 22 22
 16 16 16
 16 16 16
 16 16 16
 16 16 16
 16 16 16
 17 17 17
 17 17 17
 17 17 17
 17 17 17
 18 18 18
 18 18 18
 18 18 18
 18 18 18
 18 18 18
 19 19 19
 19 19 19
 19 19 19
 18 18 18
 19 19 19
 21 21 21
 20 20 20
 21 21 21
 22 22 22
 23 23 23
 22 22 22
 23 23 23
 23 23 23
 25 25 25
 25 25 25
 24 24 24
 25 25 25
 23 23 23
 22 22 22
 23 23 23
 22 22 22
 22 22 22
 23 23 23
 22 22 22
 22 22 22
 16 16 16
 16 16 16
 16 16 16
 16 16 16
 17 17 17
 17 17 17
 17 17 17
 17 17 17
 17 17 17
 17 17 17
 17 17 17
 17 17 17
 18 18 18
 18 18 18
 18 18 18
 18 18 18
 18 18 18
 19 19 19
 20 20 20
 20 20 20
 22 22 22
 21 21 21
 22 22 22
 23 23 23
 25 25 25
 24 24 24
 24 24 24
 25 25 25
 26 26 26
 24 24 24
 24 24 24
 24 24 24
 23 23 23
 23 23 23
 23 23 23
 22 22 22
 22 22 22
 22 22 22
 21 21 21
 16 16 16
 16 16 16
 17 17 17
 16 16 16
 16 16 16
 17 17 17
 17 17 17
 17 17 17
 17 17 17
 18 18 18
 18 18 18
 17 17 17
 18 18 18
 18 18 18
 19 19 19
 20 20 20
 19 19 19
 19 19 19
 20 20 20
 20 20 20
 21 21 21
 22 22 22
 21 21 21
 23 23 23
 24 24 24
 25 25 25
 26 26 26
 26 26 26
 25 25 25
 24 24 24
 24 24 24
 24 24 24
 24 24 24
 22 22 22
 22 22 22
 22 22 22
 22 22 22
 22 22 22
 21 21 21
 16 16 16
 16 16 16
 16 16 16
 16 16 16
 16 16 16
 17 17 17
 17 17 17
 17 17 17
 17 17 17
 17 17 17
 17 17 17
 17 17 17
 18 18 18
 18 18 18
 19 19 19
 20 20 20
 19 19 19
 19 19 19
 20 20 20
 21 21 21
 21 21 21
 21 21 21
 24 24 24
 24 24 24
 24 24 24
 25 25 25
 26 26 26
 27 27 27
 25 25 25
 27 27 27
 25 25 25
 25 25 25
 23 23 23
 24 24 24
 23 23 23
 23 23 23
 21 21 21
 22 22 22
 22 22 22
 16 16 16
 16 16 16
 16 16 16
 17 17 17
 16 16 16
 17 17 17
 17 17 17
 17 17 17
 17 17 17
 17 17 17
 18 18 18
 18 18 18
 18 18 18
 18 18 18
 18 18 18
 19 19 19
 20 20 20
 19 19 19
 20 20 20
 21 21 21
 22 22 22
 21 21 21
 22 22 22
 24 24 24
 26 26 26
 26 26 26
 28 28 28
 27 27 27
 27 27 27
 26 26 26
 26 26 26
 25 25 25
 24 24 24
 24 24 24
 22 22 22
 22 22 22
 22 22 22
 22 22 22
 22 22 22
 16 16 16
 16 16 16
 16 16 16
 16 16 16
 16 16 16
 16 16 16
 17 17 17
 17 17 17
 17 17 17
 17 17 17
 17 17 17
 17 17 17
 18 18 18
 18 18 18
 19 19 19
 18 18 18
 20 20 20
 19 19 19
 20 20 20
 21 21 21
 21 21 21
 23 23 23
 24 24 24
 25 25 25
 27 27 27
 28 28 28
 30 30 30
 34 34 34
 30 30 30
 30 30 30
 27 27 27
 26 26 26
 24 24 24
 24 24 24
 23 23 23
 22 22 22
 22 22 22
 22 22 22
 22 22 22
 16 16 16
 16 16 16
 16 16 16
 16 16 16
 16 16 16
 16 16 16
 17 17 17
 17 17 17
 17 17 17
 17 17 17
 18 18 18
 18 18 18
 17 17 17
 18 18 18
 19 19 19
 19 19 19
 19 19 19
 19 19 19
 20 20 20
 20 20 20
 21 21 21
 22 22 22
 25 25 25
 25 25 25
 26 26 26
 29 29 29
 33 33 33
 27 27 27
 32 32 32
 29 29 29
 27 27 27
 27 27 27
 24 24 24
 23 23 23
 24 24 24
 22 22 22
 22 22 22
 22 22 22
 22 22 22
 16 16 16
 16 16 16
 16 16 16
 16 16 16
 17 17 17
 16 16 16
 17 17 17
 17 17 17
 17 17 17
 18 18 18
 17 17 17
 18 18 18
 18 18 18
 18 18 18
 18 18 18
 19 19 19
 19 19 19
 19 19 19
 20 20 20
 20 20 20
 24 24 24
 23 23 23
 25 25 25
 27 27 27
 29 29 29
 32 32 32
 33 33 33
 36 36 36
 34 34 34
 31 31 31
 29 29 29
 27 27 27
 26 26 26
 24 24 24
 22 22 22
 23 23 23
 22 22 22
 22 22 22
 22 22 22
 16 16 16
 16 16 16
 16 16 16
 16 16 16
 16 16 16
 16 16 16
 17 17 17
 17 17 17
 17 17 17
 18 18 18
 18 18 18
 17 17 17
 17 17 17
 19 19 19
 18 18 18
 19 19 19
 20 20 20
 19 19 19
 20 20 20
 24 24 24
 21 21 21
 22 22 22
 25 25 25
 27 27 27
 32 32 32
 32 32 32
 35 35 35
 31 31 31
 36 36 36
 34 34 34
 29 29 29
 29 29 29
 26 26 26
 24 24 24
 23 23 23
 22 22 22
 25 25 25
 21 21 21
 21 21 21
 16 16 16
 16 16 16
 16 16 16
 16 16 16
 16 16 16
 17 17 17
 17 17 17
 17 17 17
 17 17 17
 17 17 17
 17 17 17
 18 18 18
 18 18 18
 18 18 18
 19 19 19
 19 19 19
 20 20 20
 19 19 19
 20 20 20
 22 22 22
 22 22 22
 25 25 25
 28 28 28
 29 29 29
 32 32 32
 37 37 37
 38 38 38
 42 42 42
 39 39 39
 36 36 36
 35 35 35
 30 30 30
 26 26 26
 25 25 25
 25 25 25
 23 23 23
 22 22 22
 23 23 23
 22 22 22
 16 16 16
 16 16 16
 16 16 16
 16 16 16
 16 16 16
 16 16 16
 16 16 16
 17 17 17
 17 17 17
 17 17 17
 18 18 18
 17 17 17
 18 18 18
 18 18 18
 18 18 18
 19 19 19
 19 19 19
 20 20 20
 20 20 20
 23 23 23
 23 23 23
 22 22 22
 26 26 26
 31 31 31
 33 33 33
 37 37 37
 41 41 41
 42 42 42
 46 46 46
 38 38 38
 33 33 33
 31 31 31
 27 27 27
 23 23 23
 23 23 23
 23 23 23
 22 22 22
 22 22 22
 22 22 22
 16 16 16
 16 16 16
 16 16 16
 16 16 16
 16 16 16
 16 16 16
 17 17 17
 17 17 17
 17 17 17
 17 17 17
 17 17 17
 18 18 18
 17 17 17
 18 18 18
 18 18 18
 19 19 19
 19 19 19
 20 20 20
 20 20 20
 22 22 22
 23 23 23
 26 26 26
 28 28 28
 31 31 31
 36 36 36
 40 40 40
 45 45 45
 58 58 58
 47 47 47
 41 41 41
 38 38 38
 31 31 31
 29 29 29
 26 26 26
 25 25 25
 23 23 23
 22 22 22
 22 22 22
 22 22 22
 16 16 16
 16 16 16
 16 16 16
 16 16 16
 16 16 16
 16 16 16
 16 16 16
 17 17 17
 17 17 17
 17 17 17
 18 18 18
 17 17 17
 19 19 19
 18 18 18
 18 18 18
 19 19 19
 20 20 20
 20 20 20
 21 21 21
 23 23 23
 24 24 24
 27 27 27
 28 28 28
 30 30 30
 38 38 38
 44 44 44
 52 52 52
 47 47 47
 55 55 55
 47 47 47
 39 39 39
 31 31 31
 27 27 27
 27 27 27
 23 23 23
 24 24 24
 22 22 22
 21 21 21
 22 22 22
 16 16 16
 16 16 16
 16 16 16
 16 16 16
 16 16 16
 16 16 16
 16 16 16
 17 17 17
 17 17 17
 17 17 17
 17 17 17
 18 18 18
 17 17 17
 18 18 18
 19 19 19
 19 19 19
 20 20 20
 20 20 20
 20 20 20
 23 23 23
 23 23 23
 26 26 26
 29 29 29
 35 35 35
 40 40 40
 48 48 48
 51 51 51
 64 64 64
 58 58 58
 56 56 56
 42 42 42
 37 37 37
 30 30 30
 26 26 26
 25 25 25
 22 22 22
 23 23 23
 22 22 22
 22 22 22
 16 16 16
 16 16 16
 16 16 16
 16 16 16
 16 16 16
 16 16 16
 16 16 16
 17 17 17
 17 17 17
 17 17 17
 18 18 18
 18 18 18
 18 18 18
 18 18 18
 18 18 18
 19 19 19
 20 20 20
 20 20 20
 20 20 20
 22 22 22
 23 23 23
 27 27 27
 31 31 31
 35 35 35
 40 40 40
 52 52 52
 59 59 59
 68 68 68
 64 64 64
 56 56 56
 44 44 44
 36 36 36
 29 29 29
 27 27 27
 23 23 23
 23 23 23
 24 24 24
 22 22 22
 22 22 22
 16 16 16
 16 16 16
 16 16 16
 16 16 16
 16 16 16
 16 16 16
 16 16 16
 16 16 16
 17 17 17
 17 17 17
 18 18 18
 17 17 17
 18 18 18
 18 18 18
 18 18 18
 18 18 18
 20 20 20
 21 21 21
 22 22 22
 24 24 24
 25 25 25
 27 27 27
 30 30 30
 37 37 37
 44 44 44
 82 82 82
 107 107 107
 70 70 70
 74 74 74
 61 61 61
 50 50 50
 39 39 39
 32 32 32
 26 26 26
 24 24 24
 24 24 24
 23 23 23
 22 22 22
 22 22 22
 16 16 16
 16 16 16
 16 16 16
 16 16 16
 16 16 16
 16 16 16
 16 16 16
 16 16 16
 17 17 17
 17 17 17
 0 0 0
 18 18 18
 18 18 18
 18 18 18
 19 19 19
 18 18 18
 20 20 20
 20 20 20
 22 22 22
 23 23 23
 25 25 25
 26 26 26
 33 33 33
 39 39 39
 122 122 122
 97 97 97
 94 94 94
 143 143 143
 76 76 76
 68 68 68
 49 49 49
 40 40 40
 31 31 31
 30 30 30
 25 25 25
 23 23 23
 23 23 23
 21 21 21
 22 22 22
 15 15 15
 16 16 16
 16 16 16
 16 16 16
 16 16 16
 16 16 16
 16 16 16
 16 16 16
 0 0 0
 0 0 0
 0 0 0
 0 0 0
 18 18 18
 18 18 18
 18 18 18
 19 19 19
 21 21 21
 20 20 20
 21 21 21
 25 25 25
 24 24 24
 30 30 30
 34 34 34
 102 102 102
 33 33 33
 0 0 0
 0 0 0
 67 67 67
 112 112 112
 69 69 69
 56 56 56
 41 41 41
 32 32 32
 26 26 26
 25 25 25
 24 24 24
 22 22 22
 21 21 21
 21 21 21
 15 15 15
 16 16 16
 16 16 16
 16 16 16
 16 16 16
 16 16 16
 16 16 16
 0 0 0
 0 0 0
 0 0 0
 0 0 0
 0 0 0
 0 0 0
 18 18 18
 18 18 18
 20 20 20
 19 19 19
 21 21 21
 22 22 22
 23 23 23
 27 27 27
 28 28 28
 53 53 53
 56 56 56
 0 0 0
 0 0 0
 0 0 0
 1 1 1
 88 88 88
 74 74 74
 58 58 58
 41 41 41
 34 34 34
 27 27 27
 25 25 25
 24 24 24
 22 22 22
 21 21 21
 21 21 21
 15 15 15
 16 16 16
 16 16 16
 16 16 16
 16 16 16
 16 16 16
 16 16 16
 0 0 0
 0 0 0
 0 0 0
 0 0 0
 0 0 0
 0 0 0
 18 18 18
 18 18 18
 19 19 19
 20 20 20
 20 20 20
 22 22 22
 24 24 24
 27 27 27
 30 30 30
 71 71 71
 0 0 0
 0 0 0
 0 0 0
 0 0 0
 0 0 0
 65 65 65
 78 78 78
 60 60 60
 44 44 44
 34 34 34
 28 28 28
 26 26 26
 22 22 22
 22 22 22
 21 21 21
 20 20 20
 15 15 15
 16 16 16
 16 16 16
 16 16 16
 16 16 16
 16 16 16
 0 0 0
 0 0 0
 0 0 0
 0 0 0
 0 0 0
 0 0 0
 0 0 0
 18 18 18
 18 18 18
 18 18 18
 20 20 20
 21 21 21
 21 21 21
 24 24 24
 27 27 27
 49 49 49
 21 21 21
 0 0 0
 0 0 0
 0 0 0
 0 0 0
 0 0 0
 25 25 25
 109 109 109
 60 60 60
 44 44 44
 31 31 31
 31 31 31
 25 25 25
 22 22 22
 22 22 22
 21 21 21
 21 21 21
 15 15 15
 16 16 16
 16 16 16
 16 16 16
 16 16 16
 0 0 0
 0 0 0
 0 0 0
 0 0 0
 0 0 0
 0 0 0
 0 0 0
 0 0 0
 0 0 0
 19 19 19
 18 18 18
 19 19 19
 21 21 21
 23 23 23
 24 24 24
 27 27 27
 89 89 89
 17 17 17
 0 0 0
 0 0 0
 0 0 0
 0 0 0
 0 0 0
 0 0 0
 98 98 98
 59 59 59
 44 44 44
 32 32 32
 25 25 25
 24 24 24
 22 22 22
 22 22 22
 21 21 21
 21 21 21
 15 15 15
 16 16 16
 16 16 16
 16 16 16
 16 16 16
 0 0 0
 0 0 0
 0 0 0
 0 0 0
 0 0 0
 0 0 0
 0 0 0
 0 0 0
 2 2 2
 19 19 19
 20 20 20
 20 20 20
 22 22 22
 22 22 22
 25 25 25
 27 27 27
 52 52 52
 0 0 0
 0 0 0
 0 0 0
 0 0 0
 0 0 0
 0 0 0
 0 0 0
 69 69 69
 61 61 61
 39 39 39
 32 32 32
 31 31 31
 28 28 28
 25 25 25
 23 23 23
 21 21 21
 21 21 21
 15 15 15
 15 15 15
 16 16 16
 16 16 16
 16 16 16
 0 0 0
 0 0 0
 0 0 0
 0 0 0
 0 0 0
 0 0 0
 0 0 0
 0 0 0
 0 0 0
 18 18 18
 19 19 19
 19 19 19
 20 20 20
 21 21 21
 25 25 25
 32 32 32
 18 18 18
 0 0 0
 0 0 0
 0 0 0
 138 138 138
 246 246 246
 9 9 9
 0 0 0
 74 74 74
 58 58 58
 48 48 48
 33 33 33
 30 30 30
 25 25 25
 22 22 22
 23 23 23
 21 21 21
 21 21 21
 15 15 15
 15 15 15
 16 16 16
 16 16 16
 0 0 0
 0 0 0
 0 0 0
 0 0 0
 0 0 0
 0 0 0
 0 0 0
 0 0 0
 0 0 0
 0 0 0
 18 18 18
 19 19 19
 21 21 21
 22 22 22
 23 23 23
 25 25 25
 67 67 67
 0 0 0
 0 0 0
 0 0 0
 41 41 41
 255 255 255
 255 255 255
 36 36 36
 0 0 0
 57 57 57
 55 55 55
 40 40 40
 36 36 36
 27 27 27
 27 27 27
 22 22 22
 22 22 22
 21 21 21
 22 22 22
 15 15 15
 15 15 15
 16 16 16
 16 16 16
 0 0 0
 0 0 0
 0 0 0
 0 0 0
 0 0 0
 0 0 0
 0 0 0
 0 0 0
 0 0 0
 0 0 0
 19 19 19
 19 19 19
 19 19 19
 22 22 22
 23 23 23
 25 25 25
 60 60 60
 0 0 0
 0 0 0
 0 0 0
 255 255 255
 255 255 255
 255 255 255
 45 45 45
 0 0 0
 52 52 52
 55 55 55
 41 41 41
 34 34 34
 28 28 28
 24 24 24
 23 23 23
 22 22 22
 21 21 21
 22 22 22
 15 15 15
 15 15 15
 16 16 16
 16 16 16
 0 0 0
 0 0 0
 0 0 0
 0 0 0
 0 0 0
 0 0 0
 0 0 0
 0 0 0
 0 0 0
 0 0 0
 19 19 19
 19 19 19
 20 20 20
 21 21 21
 23 23 23
 26 26 26
 57 57 57
 0 0 0
 0 0 0
 0 0 0
 255 255 255
 255 255 255
 255 255 255
 21 21 21
 0 0 0
 74 74 74
 50 50 50
 39 39 39
 31 31 31
 28 28 28
 25 25 25
 23 23 23
 22 22 22
 23 23 23
 21 21 21
 15 15 15
 15 15 15
 16 16 16
 0 0 0
 0 0 0
 0 0 0
 0 0 0
 0 0 0
 0 0 0
 0 0 0
 0 0 0
 0 0 0
 0 0 0
 1 1 1
 19 19 19
 19 19 19
 20 20 20
 22 22 22
 24 24 24
 25 25 25
 47 47 47
 0 0 0
 0 0 0
 0 0 0
 255 255 255
 255 255 255
 255 255 255
 0 0 0
 0 0 0
 58 58 58
 49 49 49
 40 40 40
 32 32 32
 26 26 26
 25 25 25
 23 23 23
 21 21 21
 22 22 22
 21 21 21
 15 15 15
 15 15 15
 15 15 15
 0 0 0
 0 0 0
 0 0 0
 0 0 0
 0 0 0
 0 0 0
 0 0 0
 0 0 0
 0 0 0
 0 0 0
 0 0 0
 19 19 19
 20 20 20
 19 19 19
 22 22 22
 22 22 22
 37 37 37
 51 51 51
 0 0 0
 0 0 0
 255 255 255
 255 255 255
 255 255 255
 255 255 255
 0 0 0
 0 0 0
 23 23 23
 45 45 45
 37 37 37
 31 31 31
 27 27 27
 25 25 25
 22 22 22
 22 22 22
 21 21 21
 21 21 21
 15 15 15
 15 15 15
 15 15 15
 0 0 0
 0 0 0
 0 0 0
 0 0 0
 0 0 0
 0 0 0
 0 0 0
 0 0 0
 0 0 0
 1 1 1
 0 0 0
 19 19 19
 19 19 19
 20 20 20
 22 22 22
 23 23 23
 41 41 41
 0 0 0
 0 0 0
 0 0 0
 255 255 255
 255 255 255
 255 255 255
 255 255 255
 0 0 0
 0 0 0
 51 51 51
 41 41 41
 37 37 37
 31 31 31
 26 26 26
 23 23 23
 23 23 23
 23 23 23
 21 21 21
 21 21 21
 15 15 15
 15 15 15
 15 15 15
 0 0 0
 0 0 0
 0 0 0
 0 0 0
 0 0 0
 0 0 0
 0 0 0
 0 0 0
 0 0 0
 0 0 0
 1 1 1
 19 19 19
 20 20 20
 20 20 20
 22 22 22
 24 24 24
 46 46 46
 0 0 0
 0 0 0
 0 0 0
 255 255 255
 255 255 255
 255 255 255
 255 255 255
 0 0 0
 0 0 0
 50 50 50
 40 40 40
 33 33 33
 30 30 30
 27 27 27
 23 23 23
 23 23 23
 21 21 21
 21 21 21
 21 21 21
 15 15 15
 15 15 15
 15 15 15
 0 0 0
 0 0 0
 0 0 0
 0 0 0
 0 0 0
 0 0 0
 0 0 0
 0 0 0
 0 0 0
 0 0 0
 0 0 0
 20 20 20
 19 19 19
 20 20 20
 22 22 22
 22 22 22
 69 69 69
 0 0 0
 0 0 0
 0 0 0
 255 255 255
 255 255 255
 255 255 255
 77 77 77
 0 0 0
 0 0 0
 72 72 72
 42 42 42
 34 34 34
 26 26 26
 26 26 26
 24 24 24
 22 22 22
 21 21 21
 23 23 23
 21 21 21
 15 15 15
 15 15 15
 15 15 15
 0 0 0
 0 0 0
 0 0 0
 0 0 0
 0 0 0
 0 0 0
 0 0 0
 0 0 0
 1 1 1
 0 0 0
 18 18 18
 18 18 18
 20 20 20
 19 19 19
 23 23 23
 24 24 24
 37 37 37
 0 0 0
 0 0 0
 0 0 0
 0 0 0
 255 255 255
 255 255 255
 0 0 0
 0 0 0
 0 0 0
 55 55 55
 36 36 36
 29 29 29
 27 27 27
 23 23 23
 24 24 24
 23 23 23
 23 23 23
 21 21 21
 21 21 21
 15 15 15
 15 15 15
 0 0 0
 0 0 0
 0 0 0
 0 0 0
 0 0 0
 0 0 0
 0 0 0
 0 0 0
 0 0 0
 0 0 0
 0 0 0
 19 19 19
 18 18 18
 20 20 20
 20 20 20
 23 23 23
 23 23 23
 61 61 61
 0 0 0
 0 0 0
 0 0 0
 0 0 0
 0 0 0
 0 0 0
 0 0 0
 0 0 0
 17 17 17
 30 30 30
 37 37 37
 30 30 30
 28 28 28
 25 25 25
 22 22 22
 22 22 22
 21 21 21
 21 21 21
 21 21 21
 15 15 15
 15 15 15
 0 0 0
 0 0 0
 0 0 0
 0 0 0
 0 0 0
 0 0 0
 0 0 0
 0 0 0
 0 0 0
 0 0 0
 1 1 1
 18 18 18
 19 19 19
 20 20 20
 20 20 20
 23 23 23
 22 22 22
 58 58 58
 0 0 0
 0 0 0
 0 0 0
 0 0 0
 0 0 0
 0 0 0
 0 0 0
 0 0 0
 24 24 24
 37 37 37
 31 31 31
 30 30 30
 27 27 27
 24 24 24
 24 24 24
 22 22 22
 20 20 20
 21 21 21
 21 21 21
 15 15 15
 15 15 15
 0 0 0
 0 0 0
 0 0 0
 0 0 0
 0 0 0
 0 0 0
 0 0 0
 0 0 0
 0 0 0
 1 1 1
 0 0 0
 18 18 18
 19 19 19
 20 20 20
 20 20 20
 21 21 21
 24 24 24
 43 43 43
 0 0 0
 0 0 0
 0 0 0
 0 0 0
 0 0 0
 0 0 0
 0 0 0
 0 0 0
 62 62 62
 34 34 34
 31 31 31
 28 28 28
 25 25 25
 24 24 24
 23 23 23
 21 21 21
 21 21 21
 20 20 20
 20 20 20
 15 15 15
 15 15 15
 0 0 0
 0 0 0
 0 0 0
 0 0 0
 0 0 0
 0 0 0
 0 0 0
 1 1 1
 0 0 0
 0 0 0
 17 17 17
 18 18 18
 19 19 19
 18 18 18
 21 21 21
 21 21 21
 25 25 25
 66 66 66
 0 0 0
 0 0 0
 0 0 0
 0 0 0
 0 0 0
 0 0 0
 0 0 0
 0 0 0
 30 30 30
 32 32 32
 30 30 30
 27 27 27
 24 24 24
 24 24 24
 22 22 22
 21 21 21
 21 21 21
 20 20 20
 20 20 20
 15 15 15
 15 15 15
 0 0 0
 0 0 0
 0 0 0
 0 0 0
 0 0 0
 0 0 0
 0 0 0
 0 0 0
 0 0 0
 0 0 0
 18 18 18
 18 18 18
 18 18 18
 18 18 18
 21 21 21
 21 21 21
 23 23 23
 67 67 67
 0 0 0
 0 0 0
 0 0 0
 0 0 0
 0 0 0
 0 0 0
 0 0 0
 0 0 0
 14 14 14
 31 31 31
 28 28 28
 25 25 25
 25 25 25
 22 22 22
 21 21 21
 21 21 21
 20 20 20
 21 21 21
 20 20 20
 15 15 15
 15 15 15
 0 0 0
 0 0 0
 0 0 0
 0 0 0
 0 0 0
 0 0 0
 0 0 0
 0 0 0
 1 1 1
 0 0 0
 18 18 18
 17 17 17
 18 18 18
 20 20 20
 20 20 20
 22 22 22
 23 23 23
 55 55 55
 0 0 0
 0 0 0
 0 0 0
 0 0 0
 0 0 0
 0 0 0
 0 0 0
 83 83 83
 14 14 14
 29 29 29
 27 27 27
 26 26 26
 25 25 25
 21 21 21
 21 21 21
 21 21 21
 20 20 20
 20 20 20
 20 20 20
 15 15 15
 15 15 15
 0 0 0
 0 0 0
 0 0 0
 0 0 0
 0 0 0
 1 1 1
 0 0 0
 0 0 0
 0 0 0
 16 16 16
 16 16 16
 19 19 19
 18 18 18
 19 19 19
 21 21 21
 21 21 21
 24 24 24
 48 48 48
 33 33 33
 0 0 0
 0 0 0
 0 0 0
 0 0 0
 0 0 0
 0 0 0
 38 38 38
 31 31 31
 31 31 31
 26 26 26
 25 25 25
 22 22 22
 23 23 23
 22 22 22
 20 20 20
 20 20 20
 19 19 19
 20 20 20
 15 15 15
 15 15 15
 15 15 15
 0 0 0
 0 0 0
 0 0 0
 0 0 0
 0 0 0
 0 0 0
 0 0 0
 1 1 1
 18 18 18
 18 18 18
 18 18 18
 19 19 19
 19 19 19
 21 21 21
 22 22 22
 24 24 24
 45 45 45
 22 22 22
 0 0 0
 0 0 0
 0 0 0
 0 0 0
 0 0 0
 0 0 0
 19 19 19
 30 30 30
 25 25 25
 26 26 26
 23 23 23
 22 22 22
 22 22 22
 21 21 21
 21 21 21
 21 21 21
 21 21 21
 20 20 20
 15 15 15
 15 15 15
 15 15 15
 0 0 0
 0 0 0
 0 0 0
 0 0 0
 0 0 0
 0 0 0
 0 0 0
 16 16 16
 16 16 16
 16 16 16
 16 16 16
 18 18 18
 19 19 19
 21 21 21
 22 22 22
 25 25 25
 19 19 19
 115 115 115
 0 0 0
 0 0 0
 0 0 0
 0 0 0
 0 0 0
 80 80 80
 31 31 31
 27 27 27
 29 29 29
 27 27 27
 22 22 22
 23 23 23
 21 21 21
 21 21 21
 21 21 21
 19 19 19
 20 20 20
 20 20 20
 15 15 15
 15 15 15
 15 15 15
 0 0 0
 0 0 0
 0 0 0
 0 0 0
 0 0 0
 0 0 0
 1 1 1
 17 17 17
 18 18 18
 18 18 18
 19 19 19
 17 17 17
 17 17 17
 17 17 17
 17 17 17
 17 17 17
 28 28 28
 162 162 162
 22 22 22
 0 0 0
 0 0 0
 0 0 0
 17 17 17
 27 27 27
 27 27 27
 25 25 25
 24 24 24
 23 23 23
 23 23 23
 22 22 22
 21 21 21
 22 22 22
 20 20 20
 21 21 21
 19 19 19
 20 20 20
 15 15 15
 15 15 15
 15 15 15
 0 0 0
 0 0 0
 0 0 0
 0 0 0
 0 0 0
 0 0 0
 16 16 16
 17 17 17
 18 18 18
 18 18 18
 19 19 19
 19 19 19
 19 19 19
 21 21 21
 23 23 23
 25 25 25
 24 24 24
 33 33 33
 46 46 46
 0 0 0
 0 0 0
 0 0 0
 72 72 72
 30 30 30
 28 28 28
 25 25 25
 23 23 23
 23 23 23
 23 23 23
 22 22 22
 21 21 21
 21 21 21
 20 20 20
 20 20 20
 21 21 21
 19 19 19
 15 15 15
 15 15 15
 15 15 15
 16 16 16
 0 0 0
 0 0 0
 0 0 0
 1 1 1
 16 16 16
 17 17 17
 16 16 16
 16 16 16
 16 16 16
 16 16 16
 18 18 18
 20 20 20
 20 20 20
 24 24 24
 21 21 21
 25 25 25
 26 26 26
 76 76 76
 67 67 67
 44 44 44
 62 62 62
 26 26 26
 26 26 26
 25 25 25
 25 25 25
 23 23 23
 23 23 23
 22 22 22
 21 21 21
 22 22 22
 20 20 20
 21 21 21
 20 20 20
 20 20 20
 20 20 20
 15 15 15
 15 15 15
 15 15 15
 15 15 15
 15 15 15
 0 0 0
 0 0 0
 16 16 16
 16 16 16
 17 17 17
 17 17 17
 18 18 18
 18 18 18
 19 19 19
 17 17 17
 17 17 17
 17 17 17
 17 17 17
 22 22 22
 22 22 22
 24 24 24
 46 46 46
 59 59 59
 35 35 35
 30 30 30
 27 27 27
 25 25 25
 24 24 24
 24 24 24
 23 23 23
 23 23 23
 23 23 23
 22 22 22
 19 19 19
 21 21 21
 19 19 19
 21 21 21
 19 19 19
 20 20 20
 15 15 15
 15 15 15
 15 15 15
 15 15 15
 16 16 16
 16 16 16
 16 16 16
 16 16 16
 16 16 16
 16 16 16
 16 16 16
 16 16 16
 16 16 16
 18 18 18
 19 19 19
 20 20 20
 22 22 22
 23 23 23
 20 20 20
 22 22 22
 25 25 25
 26 26 26
 31 31 31
 33 33 33
 28 28 28
 24 24 24
 25 25 25
 24 24 24
 23 23 23
 24 24 24
 21 21 21
 22 22 22
 21 21 21
 21 21 21
 20 20 20
 20 20 20
 19 19 19
 20 20 20
 19 19 19
 15 15 15
 15 15 15
 15 15 15
 16 16 16
 15 15 15
 15 15 15
 15 15 15
 16 16 16
 16 16 16
 16 16 16
 17 17 17
 17 17 17
 18 18 18
 17 17 17
 16 16 16
 17 17 17
 17 17 17
 17 17 17
 23 23 23
 21 21 21
 24 24 24
 24 24 24
 23 23 23
 24 24 24
 22 22 22
 26 26 26
 25 25 25
 22 22 22
 22 22 22
 21 21 21
 20 20 20
 18 18 18
 18 18 18
 20 20 20
 20 20 20
 19 19 19
 20 20 20
 20 20 20
 19 19 19
 15 15 15
 15 15 15
 15 15 15
 15 15 15
 15 15 15
 15 15 15
 16 16 16
 16 16 16
 16 16 16
 16 16 16
 16 16 16
 16 16 16
 17 17 17
 19 19 19
 19 19 19
 21 21 21
 22 22 22
 21 21 21
 21 21 21
 20 20 20
 22 22 22
 25 25 25
 22 22 22
 25 25 25
 25 25 25
 24 24 24
 23 23 23
 22 22 22
 22 22 22
 22 22 22
 20 20 20
 21 21 21
 21 21 21
 19 19 19
 19 19 19
 20 20 20
 20 20 20
 19 19 19
 20 20 20
 15 15 15
 15 15 15
 15 15 15
 15 15 15
 16 16 16
 16 16 16
 16 16 16
 16 16 16
 16 16 16
 16 16 16
 17 17 17
 17 17 17
 18 18 18
 16 16 16
 16 16 16
 16 16 16
 17 17 17
 21 21 21
 19 19 19
 23 23 23
 21 21 21
 21 21 21
 24 24 24
 22 22 22
 21 21 21
 21 21 21
 21 21 21
 23 23 23
 22 22 22
 21 21 21
 21 21 21
 21 21 21
 21 21 21
 21 21 21
 20 20 20
 19 19 19
 19 19 19
 20 20 20
 19 19 19
 15 15 15
 15 15 15
 15 15 15
 15 15 15
 15 15 15
 15 15 15
 15 15 15
 16 16 16
 16 16 16
 17 17 17
 16 16 16
 16 16 16
 16 16 16
 18 18 18
 19 19 19
 21 21 21
 19 19 19
 17 17 17
 20 20 20
 22 22 22
 21 21 21
 22 22 22
 21 21 21
 25 25 25
 25 25 25
 23 23 23
 23 23 23
 21 21 21
 20 20 20
 20 20 20
 22 22 22
 18 18 18
 18 18 18
 18 18 18
 18 18 18
 19 19 19
 20 20 20
 19 19 19
 19 19 19
 15 15 15
 15 15 15
 15 15 15
 15 15 15
 15 15 15
 16 16 16
 16 16 16
 16 16 16
 16 16 16
 16 16 16
 16 16 16
 18 18 18
 18 18 18
 16 16 16
 16 16 16
 16 16 16
 21 21 21
 17 17 17
 19 19 19
 21 21 21
 21 21 21
 22 22 22
 21 21 21
 20 20 20
 21 21 21
 21 21 21
 20 20 20
 21 21 21
 21 21 21
 21 21 21
 19 19 19
 20 20 20
 21 21 21
 21 21 21
 20 20 20
 20 20 20
 19 19 19
 19 19 19
 19 19 19
 15 15 15
 15 15 15
 15 15 15
 15 15 15
 16 16 16
 15 15 15
 15 15 15
 15 15 15
 16 16 16
 17 17 17
 17 17 17
 16 16 16
 16 16 16
 16 16 16
 16 16 16
 16 16 16
 16 16 16
 21 21 21
 19 19 19
 21 21 21
 20 20 20
 21 21 21
 21 21 21
 20 20 20
 20 20 20
 20 20 20
 20 20 20
 22 22 22
 21 21 21
 20 20 20
 20 20 20
 20 20 20
 18 18 18
 18 18 18
 18 18 18
 18 18 18
 19 19 19
 20 20 20
 19 19 19
 15 15 15
 15 15 15
 15 15 15
 15 15 15
 15 15 15
 15 15 15
 15 15 15
 16 16 16
 16 16 16
 16 16 16
 16 16 16
 17 17 17
 18 18 18
 19 19 19
 20 20 20
 21 21 21
 16 16 16
 19 19 19
 18 18 18
 20 20 20
 20 20 20
 21 21 21
 20 20 20
 20 20 20
 19 19 19
 20 20 20
 21 21 21
 21 21 21
 19 19 19
 20 20 20
 21 21 21
 19 19 19
 20 20 20
 21 21 21
 20 20 20
 20 20 20
 20 20 20
 19 19 19
 19 19 19
 15 15 15
 15 15 15
 15 15 15
 15 15 15
 15 15 15
 16 16 16
 16 16 16
 15 15 15
 15 15 15
 16 16 16
 17 17 17
 17 17 17
 16 16 16
 16 16 16
 16 16 16
 17 17 17
 20 20 20
 19 19 19
 18 18 18
 19 19 19
 20 20 20
 21 21 21
 20 20 20
 20 20 20
 20 20 20
 21 21 21
 19 19 19
 19 19 19
 20 20 20
 20 20 20
 19 19 19
 21 21 21
 18 18 18
 18 18 18
 18 18 18
 18 18 18
 18 18 18
 19 19 19
 19 19 19
 15 15 15
 15 15 15
 15 15 15
 15 15 15
 15 15 15
 15 15 15
 15 15 15
 15 15 15
 17 17 17
 16 16 16
 16 16 16
 16 16 16
 16 16 16
 16 16 16
 16 16 16
 16 16 16
 19 19 19
 18 18 18
 18 18 18
 20 20 20
 19 19 19
 20 20 20
 19 19 19
 20 20 20
 21 21 21
 21 21 21
 19 19 19
 20 20 20
 19 19 19
 20 20 20
 20 20 20
 18 18 18
 20 20 20
 20 20 20
 18 18 18
 18 18 18
 18 18 18
 19 19 19
 19 19 19
 15 15 15
 15 15 15
 15 15 15
 15 15 15
 15 15 15
 15 15 15
 16 16 16
 16 16 16
 15 15 15
 16 16 16
 16 16 16
 18 18 18
 19 19 19
 19 19 19
 19 19 19
 16 16 16
 19 19 19
 18 18 18
 18 18 18
 18 18 18
 19 19 19
 20 20 20
 19 19 19
 20 20 20
 19 19 19
 19 19 19
 19 19 19
 20 20 20
 18 18 18
 19 19 19
 19 19 19
 20 20 20
 19 19 19
 18 18 18
 20 20 20
 20 20 20
 20 20 20
 19 19 19
 18 18 18
 