P3
40 40
255
186 186 186
 193 193 193
 189 189 189
 197 197 197
 198 198 198
 238 238 238
 216 216 216
 211 211 211
 219 219 219
 222 222 222
 247 247 247
 255 255 255
 255 255 255
 255 255 255
 255 255 255
 255 255 255
 255 255 255
 255 255 255
 255 255 255
 255 255 255
 255 255 255
 255 255 255
 255 255 255
 255 255 255
 255 255 255
 255 255 255
 255 255 255
 255 255 255
 255 255 255
 255 255 255
 255 255 255
 255 255 255
 255 255 255
 255 255 255
 255 255 255
 255 255 255
 255 255 255
 255 255 255
 255 255 255
 69 69 69
 255 255 255
 255 255 255
 255 255 255
 255 255 255
 255 255 255
 255 255 255
 255 255 255
 255 255 255
 223 223 223
 255 255 255
 255 255 255
 255 255 255
 255 255 255
 255 255 255
 255 255 255
 255 255 255
 255 255 255
 255 255 255
 255 255 255
 255 255 255
 255 255 255
 255 255 255
 255 255 255
 255 255 255
 255 255 255
 255 255 255
 255 255 255
 255 255 255
 255 255 255
 255 255 255
 255 255 255
 255 255 255
 255 255 255
 255 255 255
 255 255 255
 255 255 255
 255 255 255
 255 255 255
 255 255 255
 154 154 154
 255 255 255
 255 255 255
 255 255 255
 255 255 255
 255 255 255
 217 217 217
 255 255 255
 255 255 255
 255 255 255
 255 255 255
 255 255 255
 255 255 255
 255 255 255
 255 255 255
 255 255 255
 255 255 255
 255 255 255
 255 255 255
 255 255 255
 255 255 255
 255 255 255
 255 255 255
 255 255 255
 255 255 255
 255 255 255
 255 255 255
 255 255 255
 255 255 255
 255 255 255
 255 255 255
 255 255 255
 255 255 255
 255 255 255
 255 255 255
 255 255 255
 255 255 255
 255 255 255
 255 255 255
 255 255 255
 205 205 205
 255 255 255
 255 255 255
 255 255 255
 208 208 208
 255 255 255
 255 255 255
 255 255 255
 255 255 255
 251 251 251
 255 255 255
 255 255 255
 255 255 255
 255 255 255
 255 255 255
 255 255 255
 255 255 255
 255 255 255
 255 255 255
 255 255 255
 255 255 255
 255 255 255
 255 255 255
 255 255 255
 255 255 255
 255 255 255
 255 255 255
 255 255 255
 255 255 255
 255 255 255
 255 255 255
 255 255 255
 255 255 255
 255 255 255
 255 255 255
 255 255 255
 255 255 255
 255 255 255
 255 255 255
 199 199 199
 188 188 188
 255 255 255
 209 209 209
 255 255 255
 255 255 255
 255 255 255
 255 255 255
 255 255 255
 255 255 255
 255 255 255
 255 255 255
 255 255 255
 255 255 255
 255 255 255
 255 255 255
 255 255 255
 255 255 255
 255 255 255
 255 255 255
 255 255 255
 255 255 255
 255 255 255
 255 255 255
 255 255 255
 255 255 255
 255 255 255
 255 255 255
 255 255 255
 255 255 255
 255 255 255
 255 255 255
 255 255 255
 255 255 255
 255 255 255
 255 255 255
 255 255 255
 255 255 255
 255 255 255
 255 255 255
 191 191 191
 189 189 189
 197 197 197
 204 204 204
 255 255 255
 255 255 255
 210 210 210
 255 255 255
 255 255 255
 255 255 255
 255 255 255
 255 255 255
 255 255 255
 255 255 255
 255 255 255
 255 255 255
 255 255 255
 255 255 255
 255 255 255
 255 255 255
 255 255 255
 255 255 255
 255 255 255
 255 255 255
 255 255 255
 255 255 255
 255 255 255
 255 255 255
 255 255 255
 255 255 255
 255 255 255
 255 255 255
 255 255 255
 255 255 255
 255 255 255
 255 255 255
 255 255 255
 255 255 255
 255 255 255
 183 183 183
 201 201 201
 180 180 180
 152 152 152
 113 113 113
 255 255 255
 208 208 208
 255 255 255
 255 255 255
 255 255 255
 255 255 255
 255 255 255
 255 255 255
 255 255 255
 255 255 255
 255 255 255
 255 255 255
 255 255 255
 255 255 255
 255 255 255
 255 255 255
 255 255 255
 255 255 255
 255 255 255
 255 255 255
 255 255 255
 255 255 255
 255 255 255
 255 255 255
 255 255 255
 255 255 255
 255 255 255
 255 255 255
 255 255 255
 255 255 255
 255 255 255
 255 255 255
 255 255 255
 255 255 255
 255 255 255
 182 182 182
 193 193 193
 188 188 188
 112 112 112
 113 113 113
 168 168 168
 255 255 255
 255 255 255
 255 255 255
 220 220 220
 255 255 255
 255 255 255
 255 255 255
 255 255 255
 255 255 255
 255 255 255
 255 255 255
 255 255 255
 255 255 255
 255 255 255
 255 255 255
 255 255 255
 255 255 255
 255 255 255
 255 255 255
 255 255 255
 255 255 255
 255 255 255
 255 255 255
 255 255 255
 255 255 255
 255 255 255
 255 255 255
 255 255 255
 255 255 255
 255 255 255
 255 255 255
 255 255 255
 255 255 255
 255 255 255
 185 185 185
 170 170 170
 191 191 191
 108 108 108
 114 114 114
 170 170 170
 207 207 207
 210 210 210
 239 239 239
 219 219 219
 255 255 255
 255 255 255
 255 255 255
 255 255 255
 255 255 255
 255 255 255
 255 255 255
 255 255 255
 255 255 255
 255 255 255
 255 255 255
 255 255 255
 255 255 255
 255 255 255
 255 255 255
 255 255 255
 255 255 255
 255 255 255
 255 255 255
 255 255 255
 255 255 255
 255 255 255
 255 255 255
 255 255 255
 255 255 255
 255 255 255
 255 255 255
 255 255 255
 255 255 255
 200 200 200
 202 202 202
 183 183 183
 153 153 153
 114 114 114
 115 115 115
 116 116 116
 255 255 255
 215 215 215
 255 255 255
 255 255 255
 255 255 255
 255 255 255
 255 255 255
 241 241 241
 255 255 255
 255 255 255
 255 255 255
 255 255 255
 255 255 255
 255 255 255
 255 255 255
 255 255 255
 255 255 255
 255 255 255
 255 255 255
 255 255 255
 255 255 255
 255 255 255
 255 255 255
 255 255 255
 255 255 255
 255 255 255
 255 255 255
 255 255 255
 255 255 255
 255 255 255
 255 255 255
 255 255 255
 255 255 255
 196 196 196
 184 184 184
 195 195 195
 193 193 193
 160 160 160
 126 126 126
 255 255 255
 255 255 255
 255 255 255
 255 255 255
 255 255 255
 255 255 255
 255 255 255
 255 255 255
 255 255 255
 255 255 255
 255 255 255
 255 255 255
 255 255 255
 255 255 255
 255 255 255
 255 255 255
 255 255 255
 255 255 255
 255 255 255
 255 255 255
 255 255 255
 255 255 255
 255 255 255
 255 255 255
 255 255 255
 255 255 255
 255 255 255
 255 255 255
 255 255 255
 255 255 255
 255 255 255
 255 255 255
 255 255 255
 196 196 196
 210 210 210
 187 187 187
 183 183 183
 165 165 165
 165 165 165
 116 116 116
 123 123 123
 201 201 201
 210 210 210
 255 255 255
 143 143 143
 255 255 255
 255 255 255
 255 255 255
 255 255 255
 255 255 255
 255 255 255
 255 255 255
 255 255 255
 255 255 255
 255 255 255
 255 255 255
 255 255 255
 255 255 255
 255 255 255
 255 255 255
 255 255 255
 255 255 255
 255 255 255
 255 255 255
 255 255 255
 255 255 255
 255 255 255
 255 255 255
 255 255 255
 240 240 240
 255 255 255
 255 255 255
 255 255 255
 196 196 196
 195 195 195
 176 176 176
 172 172 172
 175 175 175
 166 166 166
 163 163 163
 255 255 255
 255 255 255
 255 255 255
 211 211 211
 255 255 255
 255 255 255
 255 255 255
 255 255 255
 255 255 255
 255 255 255
 255 255 255
 255 255 255
 255 255 255
 255 255 255
 255 255 255
 255 255 255
 255 255 255
 255 255 255
 255 255 255
 255 255 255
 255 255 255
 255 255 255
 255 255 255
 255 255 255
 255 255 255
 255 255 255
 255 255 255
 255 255 255
 255 255 255
 255 255 255
 255 255 255
 255 255 255
 255 255 255
 206 206 206
 186 186 186
 190 190 190
 170 170 170
 168 168 168
 157 157 157
 203 203 203
 118 118 118
 207 207 207
 215 215 215
 255 255 255
 219 219 219
 195 195 195
 255 255 255
 255 255 255
 255 255 255
 255 255 255
 255 255 255
 255 255 255
 255 255 255
 255 255 255
 255 255 255
 255 255 255
 255 255 255
 255 255 255
 255 255 255
 255 255 255
 255 255 255
 255 255 255
 255 255 255
 255 255 255
 255 255 255
 255 255 255
 255 255 255
 255 255 255
 255 255 255
 255 255 255
 255 255 255
 255 255 255
 200 200 200
 177 177 177
 184 184 184
 160 160 160
 169 169 169
 183 183 183
 151 151 151
 251 251 251
 205 205 205
 255 255 255
 255 255 255
 255 255 255
 255 255 255
 255 255 255
 255 255 255
 255 255 255
 255 255 255
 255 255 255
 255 255 255
 255 255 255
 255 255 255
 255 255 255
 255 255 255
 255 255 255
 255 255 255
 255 255 255
 255 255 255
 255 255 255
 255 255 255
 255 255 255
 255 255 255
 255 255 255
 255 255 255
 255 255 255
 255 255 255
 255 255 255
 255 255 255
 255 255 255
 255 255 255
 255 255 255
 184 184 184
 188 188 188
 173 173 173
 178 178 178
 167 167 167
 175 175 175
 112 112 112
 244 244 244
 200 200 200
 255 255 255
 116 116 116
 255 255 255
 217 217 217
 255 255 255
 252 252 252
 255 255 255
 255 255 255
 255 255 255
 255 255 255
 255 255 255
 255 255 255
 255 255 255
 255 255 255
 255 255 255
 255 255 255
 255 255 255
 255 255 255
 255 255 255
 255 255 255
 255 255 255
 255 255 255
 255 255 255
 255 255 255
 255 255 255
 255 255 255
 226 226 226
 255 255 255
 255 255 255
 255 255 255
 201 201 201
 188 188 188
 189 189 189
 172 172 172
 178 178 178
 172 172 172
 168 168 168
 122 122 122
 114 114 114
 210 210 210
 255 255 255
 255 255 255
 255 255 255
 255 255 255
 255 255 255
 255 255 255
 255 255 255
 255 255 255
 255 255 255
 255 255 255
 255 255 255
 255 255 255
 255 255 255
 255 255 255
 255 255 255
 255 255 255
 255 255 255
 255 255 255
 255 255 255
 255 255 255
 255 255 255
 255 255 255
 255 255 255
 255 255 255
 255 255 255
 255 255 255
 255 255 255
 255 255 255
 255 255 255
 255 255 255
 183 183 183
 199 199 199
 171 171 171
 168 168 168
 169 169 169
 168 168 168
 166 166 166
 211 211 211
 120 120 120
 171 171 171
 207 207 207
 209 209 209
 185 185 185
 255 255 255
 255 255 255
 255 255 255
 255 255 255
 255 255 255
 255 255 255
 255 255 255
 255 255 255
 255 255 255
 255 255 255
 255 255 255
 255 255 255
 255 255 255
 255 255 255
 255 255 255
 255 255 255
 255 255 255
 255 255 255
 255 255 255
 255 255 255
 255 255 255
 255 255 255
 255 255 255
 255 255 255
 255 255 255
 200 200 200
 255 255 255
 193 193 193
 182 182 182
 178 178 178
 169 169 169
 169 169 169
 170 170 170
 170 170 170
 118 118 118
 115 115 115
 171 171 171
 170 170 170
 255 255 255
 255 255 255
 178 178 178
 255 255 255
 255 255 255
 255 255 255
 255 255 255
 255 255 255
 255 255 255
 255 255 255
 255 255 255
 255 255 255
 255 255 255
 255 255 255
 255 255 255
 255 255 255
 255 255 255
 255 255 255
 255 255 255
 255 255 255
 255 255 255
 218 218 218
 255 255 255
 255 255 255
 255 255 255
 255 255 255
 255 255 255
 255 255 255
 186 186 186
 173 173 173
 178 178 178
 174 174 174
 174 174 174
 170 170 170
 175 175 175
 165 165 165
 171 171 171
 113 113 113
 176 176 176
 196 196 196
 228 228 228
 253 253 253
 255 255 255
 236 236 236
 233 233 233
 255 255 255
 255 255 255
 255 255 255
 255 255 255
 255 255 255
 255 255 255
 255 255 255
 255 255 255
 255 255 255
 255 255 255
 255 255 255
 255 255 255
 255 255 255
 255 255 255
 255 255 255
 255 255 255
 255 255 255
 246 246 246
 255 255 255
 255 255 255
 185 185 185
 255 255 255
 255 255 255
 180 180 180
 183 183 183
 174 174 174
 180 180 180
 173 173 173
 170 170 170
 162 162 162
 163 163 163
 160 160 160
 163 163 163
 170 170 170
 255 255 255
 255 255 255
 255 255 255
 255 255 255
 255 255 255
 255 255 255
 255 255 255
 255 255 255
 255 255 255
 255 255 255
 255 255 255
 255 255 255
 255 255 255
 255 255 255
 255 255 255
 255 255 255
 255 255 255
 255 255 255
 255 255 255
 255 255 255
 255 255 255
 255 255 255
 255 255 255
 255 255 255
 187 187 187
 255 255 255
 255 255 255
 255 255 255
 255 255 255
 188 188 188
 239 239 239
 169 169 169
 170 170 170
 162 162 162
 162 162 162
 168 168 168
 172 172 172
 129 129 129
 116 116 116
 169 169 169
 245 245 245
 255 255 255
 224 224 224
 255 255 255
 255 255 255
 255 255 255
 238 238 238
 255 255 255
 255 255 255
 255 255 255
 255 255 255
 255 255 255
 255 255 255
 255 255 255
 255 255 255
 255 255 255
 255 255 255
 255 255 255
 255 255 255
 255 255 255
 255 255 255
 255 255 255
 255 255 255
 255 255 255
 255 255 255
 255 255 255
 255 255 255
 255 255 255
 179 179 179
 174 174 174
 169 169 169
 175 175 175
 167 167 167
 176 176 176
 178 178 178
 167 167 167
 152 152 152
 120 120 120
 157 157 157
 250 250 250
 161 161 161
 255 255 255
 255 255 255
 255 255 255
 255 255 255
 255 255 255
 240 240 240
 255 255 255
 255 255 255
 255 255 255
 255 255 255
 255 255 255
 255 255 255
 255 255 255
 255 255 255
 255 255 255
 255 255 255
 255 255 255
 255 255 255
 255 255 255
 247 247 247
 255 255 255
 255 255 255
 249 249 249
 255 255 255
 255 255 255
 181 181 181
 255 255 255
 187 187 187
 176 176 176
 169 169 169
 175 175 175
 177 177 177
 175 175 175
 162 162 162
 171 171 171
 166 166 166
 164 164 164
 193 193 193
 123 123 123
 247 247 247
 192 192 192
 206 206 206
 255 255 255
 255 255 255
 255 255 255
 255 255 255
 243 243 243
 255 255 255
 255 255 255
 255 255 255
 255 255 255
 255 255 255
 255 255 255
 255 255 255
 255 255 255
 255 255 255
 255 255 255
 254 254 254
 255 255 255
 255 255 255
 193 193 193
 255 255 255
 255 255 255
 185 185 185
 255 255 255
 255 255 255
 235 235 235
 239 239 239
 169 169 169
 206 206 206
 255 255 255
 172 172 172
 179 179 179
 255 255 255
 167 167 167
 162 162 162
 206 206 206
 118 118 118
 195 195 195
 219 219 219
 244 244 244
 255 255 255
 172 172 172
 255 255 255
 255 255 255
 255 255 255
 255 255 255
 255 255 255
 255 255 255
 255 255 255
 255 255 255
 255 255 255
 255 255 255
 255 255 255
 255 255 255
 255 255 255
 255 255 255
 255 255 255
 255 255 255
 255 255 255
 255 255 255
 255 255 255
 255 255 255
 237 237 237
 255 255 255
 255 255 255
 167 167 167
 255 255 255
 162 162 162
 238 238 238
 164 164 164
 160 160 160
 168 168 168
 162 162 162
 170 170 170
 163 163 163
 163 163 163
 118 118 118
 194 194 194
 255 255 255
 177 177 177
 255 255 255
 255 255 255
 189 189 189
 255 255 255
 188 188 188
 224 224 224
 255 255 255
 255 255 255
 255 255 255
 255 255 255
 255 255 255
 255 255 255
 255 255 255
 255 255 255
 255 255 255
 255 255 255
 202 202 202
 255 255 255
 255 255 255
 255 255 255
 246 246 246
 255 255 255
 255 255 255
 160 160 160
 246 246 246
 168 168 168
 169 169 169
 170 170 170
 171 171 171
 160 160 160
 173 173 173
 155 155 155
 168 168 168
 169 169 169
 169 169 169
 149 149 149
 214 214 214
 227 227 227
 165 165 165
 255 255 255
 199 199 199
 227 227 227
 255 255 255
 255 255 255
 255 255 255
 242 242 242
 219 219 219
 255 255 255
 255 255 255
 255 255 255
 238 238 238
 255 255 255
 255 255 255
 255 255 255
 187 187 187
 255 255 255
 246 246 246
 255 255 255
 255 255 255
 255 255 255
 240 240 240
 158 158 158
 255 255 255
 244 244 244
 162 162 162
 156 156 156
 169 169 169
 171 171 171
 160 160 160
 168 168 168
 167 167 167
 168 168 168
 169 169 169
 165 165 165
 164 164 164
 228 228 228
 123 123 123
 208 208 208
 229 229 229
 176 176 176
 212 212 212
 255 255 255
 197 197 197
 255 255 255
 176 176 176
 200 200 200
 220 220 220
 174 174 174
 255 255 255
 255 255 255
 255 255 255
 162 162 162
 255 255 255
 255 255 255
 255 255 255
 255 255 255
 255 255 255
 255 255 255
 255 255 255
 163 163 163
 255 255 255
 255 255 255
 160 160 160
 237 237 237
 163 163 163
 164 164 164
 158 158 158
 164 164 164
 161 161 161
 166 166 166
 168 168 168
 164 164 164
 158 158 158
 166 166 166
 167 167 167
 154 154 154
 193 193 193
 161 161 161
 252 252 252
 238 238 238
 179 179 179
 251 251 251
 255 255 255
 192 192 192
 206 206 206
 236 236 236
 250 250 250
 213 213 213
 255 255 255
 222 222 222
 247 247 247
 255 255 255
 255 255 255
 164 164 164
 255 255 255
 255 255 255
 255 255 255
 255 255 255
 243 243 243
 255 255 255
 165 165 165
 255 255 255
 161 161 161
 244 244 244
 157 157 157
 192 192 192
 159 159 159
 219 219 219
 173 173 173
 163 163 163
 157 157 157
 165 165 165
 171 171 171
 172 172 172
 168 168 168
 187 187 187
 124 124 124
 230 230 230
 255 255 255
 206 206 206
 204 204 204
 174 174 174
 255 255 255
 182 182 182
 185 185 185
 171 171 171
 255 255 255
 212 212 212
 236 236 236
 255 255 255
 255 255 255
 148 148 148
 255 255 255
 255 255 255
 237 237 237
 255 255 255
 239 239 239
 255 255 255
 156 156 156
 238 238 238
 159 159 159
 255 255 255
 243 243 243
 163 163 163
 255 255 255
 159 159 159
 160 160 160
 166 166 166
 162 162 162
 168 168 168
 165 165 165
 171 171 171
 167 167 167
 162 162 162
 163 163 163
 238 238 238
 196 196 196
 169 169 169
 231 231 231
 207 207 207
 192 192 192
 255 255 255
 171 171 171
 172 172 172
 229 229 229
 169 169 169
 181 181 181
 253 253 253
 255 255 255
 131 131 131
 255 255 255
 255 255 255
 158 158 158
 255 255 255
 255 255 255
 237 237 237
 255 255 255
 228 228 228
 163 163 163
 255 255 255
 233 233 233
 161 161 161
 240 240 240
 255 255 255
 165 165 165
 166 166 166
 161 161 161
 162 162 162
 168 168 168
 165 165 165
 170 170 170
 167 167 167
 173 173 173
 170 170 170
 169 169 169
 224 224 224
 124 124 124
 228 228 228
 162 162 162
 206 206 206
 243 243 243
 167 167 167
 212 212 212
 198 198 198
 236 236 236
 131 131 131
 177 177 177
 255 255 255
 175 175 175
 208 208 208
 255 255 255
 183 183 183
 255 255 255
 238 238 238
 192 192 192
 255 255 255
 238 238 238
 155 155 155
 255 255 255
 158 158 158
 243 243 243
 235 235 235
 200 200 200
 158 158 158
 159 159 159
 154 154 154
 162 162 162
 168 168 168
 164 164 164
 170 170 170
 167 167 167
 162 162 162
 174 174 174
 171 171 171
 172 172 172
 218 218 218
 197 197 197
 155 155 155
 234 234 234
 132 132 132
 203 203 203
 200 200 200
 214 214 214
 161 161 161
 193 193 193
 164 164 164
 170 170 170
 161 161 161
 255 255 255
 208 208 208
 146 146 146
 255 255 255
 143 143 143
 240 240 240
 228 228 228
 188 188 188
 232 232 232
 235 235 235
 235 235 235
 225 225 225
 163 163 163
 255 255 255
 177 177 177
 165 165 165
 160 160 160
 155 155 155
 163 163 163
 164 164 164
 170 170 170
 161 161 161
 162 162 162
 168 168 168
 165 165 165
 176 176 176
 167 167 167
 124 124 124
 196 196 196
 254 254 254
 173 173 173
 196 196 196
 208 208 208
 195 195 195
 211 211 211
 241 241 241
 147 147 147
 180 180 180
 129 129 129
 204 204 204
 253 253 253
 137 137 137
 241 241 241
 200 200 200
 154 154 154
 145 145 145
 234 234 234
 255 255 255
 231 231 231
 255 255 255
 159 159 159
 232 232 232
 255 255 255
 159 159 159
 158 158 158
 159 159 159
 161 161 161
 156 156 156
 164 164 164
 165 165 165
 161 161 161
 168 168 168
 163 163 163
 170 170 170
 176 176 176
 167 167 167
 169 169 169
 226 226 226
 121 121 121
 202 202 202
 191 191 191
 158 158 158
 203 203 203
 123 123 123
 219 219 219
 126 126 126
 235 235 235
 248 248 248
 134 134 134
 203 203 203
 140 140 140
 255 255 255
 232 232 232
 179 179 179
 255 255 255
 221 221 221
 255 255 255
 230 230 230
 150 150 150
 227 227 227
 235 235 235
 160 160 160
 255 255 255
 163 163 163
 164 164 164
 160 160 160
 162 162 162
 157 157 157
 164 164 164
 166 166 166
 171 171 171
 167 167 167
 170 170 170
 171 171 171
 173 173 173
 169 169 169
 179 179 179
 155 155 155
 187 187 187
 233 233 233
 124 124 124
 233 233 233
 127 127 127
 231 231 231
 178 178 178
 126 126 126
 199 199 199
 141 141 141
 243 243 243
 218 218 218
 167 167 167
 138 138 138
 136 136 136
 232 232 232
 139 139 139
 231 231 231
 217 217 217
 154 154 154
 255 255 255
 146 146 146
 230 230 230
 155 155 155
 255 255 255
 152 152 152
 159 159 159
 161 161 161
 162 162 162
 158 158 158
 165 165 165
 161 161 161
 168 168 168
 164 164 164
 171 171 171
 176 176 176
 168 168 168
 175 175 175
 171 171 171
 190 190 190
 122 122 122
 232 232 232
 197 197 197
 167 167 167
 193 193 193
 188 188 188
 223 223 223
 127 127 127
 128 128 128
 133 133 133
 199 199 199
 142 142 142
 245 245 245
 135 135 135
 255 255 255
 250 250 250
 224 224 224
 218 218 218
 232 232 232
 255 255 255
 231 231 231
 227 227 227
 154 154 154
 255 255 255
 157 157 157
 153 153 153
 160 160 160
 162 162 162
 163 163 163
 159 159 159
 166 166 166
 192 192 192
 164 164 164
 170 170 170
 176 176 176
 168 168 168
 169 169 169
 175 175 175
 177 177 177
 151 151 151
 125 125 125
 154 154 154
 125 125 125
 193 193 193
 123 123 123
 159 159 159
 135 135 135
 208 208 208
 129 129 129
 196 196 196
 176 176 176
 136 136 136
 141 141 141
 160 160 160
 171 171 171
 144 144 144
 150 150 150
 142 142 142
 153 153 153
 145 145 145
 151 151 151
 153 153 153
 149 149 149
 156 156 156
 158 158 158
 154 154 154
 161 161 161
 182 182 182
 164 164 164
 160 160 160
 243 243 243
 192 192 192
 189 189 189
 175 175 175
 168 168 168
 169 169 169
 179 179 179
 177 177 177
 173 173 173
 179 179 179
 195 195 195
 150 150 150
 190 190 190
 255 255 255
 124 124 124
 255 255 255
 126 126 126
 255 255 255
 143 143 143
 198 198 198
 135 135 135
 217 217 217
 255 255 255
 203 203 203
 255 255 255
 154 154 154
 255 255 255
 225 225 225
 144 144 144
 255 255 255
 147 147 147
 233 233 233
 255 255 255
 226 226 226
 158 158 158
 160 160 160
 156 156 156
 163 163 163
 249 249 249
 161 161 161
 168 168 168
 169 169 169
 166 166 166
 167 167 167
 174 174 174
 174 174 174
 176 176 176
 173 173 173
 174 174 174
 214 214 214
 131 131 131
 218 218 218
 122 122 122
 204 204 204
 193 193 193
 125 125 125
 230 230 230
 194 194 194
 222 222 222
 161 161 161
 232 232 232
 138 138 138
 207 207 207
 208 208 208
 148 148 148
 217 217 217
 141 141 141
 225 225 225
 178 178 178
 255 255 255
 221 221 221
 154 154 154
 234 234 234
 152 152 152
 164 164 164
 160 160 160
 157 157 157
 221 221 221
 165 165 165
 162 162 162
 168 168 168
 165 165 165
 166 166 166
 177 177 177
 170 170 170
 171 171 171
 173 173 173
 174 174 174
 184 184 184
 