P3
72 36
255
127 127 127
 127 127 127
 127 127 127
 127 127 127
 127 127 127
 127 127 127
 127 127 127
 127 127 127
 127 127 127
 127 127 127
 127 127 127
 127 127 127
 127 127 127
 127 127 127
 127 127 127
 127 127 127
 127 127 127
 127 127 127
 127 127 127
 127 127 127
 127 127 127
 127 127 127
 127 127 127
 127 127 127
 127 127 127
 127 127 127
 127 127 127
 127 127 127
 127 127 127
 127 127 127
 127 127 127
 127 127 127
 127 127 127
 127 127 127
 127 127 127
 127 127 127
 127 127 127
 127 127 127
 127 127 127
 127 127 127
 127 127 127
 127 127 127
 127 127 127
 127 127 127
 127 127 127
 127 127 127
 127 127 127
 127 127 127
 127 127 127
 127 127 127
 127 127 127
 127 127 127
 127 127 127
 127 127 127
 127 127 127
 127 127 127
 127 127 127
 127 127 127
 127 127 127
 127 127 127
 127 127 127
 127 127 127
 127 127 127
 127 127 127
 127 127 127
 127 127 127
 127 127 127
 127 127 127
 127 127 127
 127 127 127
 127 127 127
 127 127 127
 134 134 134
 135 135 135
 136 136 136
 137 137 137
 138 138 138
 138 138 138
 139 139 139
 140 140 140
 140 140 140
 140 140 140
 140 140 140
 141 141 141
 141 141 141
 140 140 140
 140 140 140
 140 140 140
 139 139 139
 139 139 139
 138 138 138
 137 137 137
 137 137 137
 136 136 136
 135 135 135
 134 134 134
 133 133 133
 131 131 131
 130 130 130
 129 129 129
 128 128 128
 126 126 126
 125 125 125
 124 124 124
 123 123 123
 122 122 122
 120 120 120
 119 119 119
 118 118 118
 117 117 117
 116 116 116
 115 115 115
 115 115 115
 114 114 114
 113 113 113
 113 113 113
 112 112 112
 112 112 112
 112 112 112
 112 112 112
 112 112 112
 112 112 112
 112 112 112
 113 113 113
 113 113 113
 114 114 114
 114 114 114
 115 115 115
 116 116 116
 117 117 117
 118 118 118
 119 119 119
 120 120 120
 121 121 121
 122 122 122
 123 123 123
 125 125 125
 126 126 126
 127 127 127
 128 128 128
 130 130 130
 131 131 131
 132 132 132
 133 133 133
 140 140 140
 142 142 142
 144 144 144
 146 146 146
 148 148 148
 149 149 149
 150 150 150
 151 151 151
 152 152 152
 153 153 153
 153 153 153
 153 153 153
 153 153 153
 153 153 153
 153 153 153
 152 152 152
 151 151 151
 150 150 150
 148 148 148
 147 147 147
 145 145 145
 143 143 143
 142 142 142
 139 139 139
 137 137 137
 135 135 135
 133 133 133
 130 130 130
 128 128 128
 125 125 125
 123 123 123
 120 120 120
 118 118 118
 115 115 115
 113 113 113
 111 111 111
 109 109 109
 107 107 107
 105 105 105
 103 103 103
 102 102 102
 100 100 100
 99 99 99
 98 98 98
 97 97 97
 97 97 97
 96 96 96
 96 96 96
 96 96 96
 96 96 96
 97 97 97
 98 98 98
 98 98 98
 100 100 100
 101 101 101
 102 102 102
 104 104 104
 106 106 106
 108 108 108
 110 110 110
 112 112 112
 114 114 114
 116 116 116
 119 119 119
 121 121 121
 124 124 124
 126 126 126
 129 129 129
 131 131 131
 134 134 134
 136 136 136
 138 138 138
 146 146 146
 149 149 149
 151 151 151
 154 154 154
 156 156 156
 159 159 159
 160 160 160
 162 162 162
 163 163 163
 164 164 164
 165 165 165
 165 165 165
 165 165 165
 164 164 164
 164 164 164
 163 163 163
 161 161 161
 160 160 160
 158 158 158
 155 155 155
 153 153 153
 150 150 150
 147 147 147
 144 144 144
 141 141 141
 137 137 137
 134 134 134
 130 130 130
 127 127 127
 123 123 123
 119 119 119
 115 115 115
 112 112 112
 108 108 108
 105 105 105
 101 101 101
 98 98 98
 95 95 95
 93 93 93
 90 90 90
 88 88 88
 86 86 86
 84 84 84
 83 83 83
 81 81 81
 81 81 81
 80 80 80
 80 80 80
 80 80 80
 80 80 80
 81 81 81
 82 82 82
 83 83 83
 85 85 85
 87 87 87
 89 89 89
 91 91 91
 94 94 94
 97 97 97
 100 100 100
 103 103 103
 106 106 106
 110 110 110
 113 113 113
 117 117 117
 121 121 121
 125 125 125
 128 128 128
 132 132 132
 136 136 136
 139 139 139
 142 142 142
 149 149 149
 154 154 154
 157 157 157
 161 161 161
 164 164 164
 167 167 167
 169 169 169
 171 171 171
 173 173 173
 174 174 174
 175 175 175
 175 175 175
 175 175 175
 174 174 174
 173 173 173
 172 172 172
 170 170 170
 168 168 168
 165 165 165
 162 162 162
 159 159 159
 156 156 156
 152 152 152
 147 147 147
 143 143 143
 139 139 139
 134 134 134
 129 129 129
 124 124 124
 119 119 119
 114 114 114
 110 110 110
 105 105 105
 100 100 100
 96 96 96
 91 91 91
 87 87 87
 83 83 83
 80 80 80
 76 76 76
 73 73 73
 71 71 71
 68 68 68
 66 66 66
 65 65 65
 64 64 64
 63 63 63
 63 63 63
 63 63 63
 63 63 63
 64 64 64
 66 66 66
 67 67 67
 69 69 69
 72 72 72
 75 75 75
 78 78 78
 81 81 81
 85 85 85
 89 89 89
 93 93 93
 98 98 98
 102 102 102
 107 107 107
 112 112 112
 117 117 117
 122 122 122
 127 127 127
 131 131 131
 136 136 136
 141 141 141
 145 145 145
 152 152 152
 157 157 157
 162 162 162
 166 166 166
 170 170 170
 173 173 173
 176 176 176
 179 179 179
 181 181 181
 182 182 182
 183 183 183
 184 184 184
 184 184 184
 183 183 183
 182 182 182
 180 180 180
 178 178 178
 175 175 175
 172 172 172
 168 168 168
 164 164 164
 160 160 160
 155 155 155
 150 150 150
 144 144 144
 139 139 139
 133 133 133
 127 127 127
 121 121 121
 115 115 115
 109 109 109
 103 103 103
 97 97 97
 91 91 91
 86 86 86
 80 80 80
 75 75 75
 71 71 71
 66 66 66
 62 62 62
 58 58 58
 55 55 55
 52 52 52
 50 50 50
 48 48 48
 47 47 47
 46 46 46
 45 45 45
 45 45 45
 46 46 46
 47 47 47
 49 49 49
 51 51 51
 54 54 54
 57 57 57
 60 60 60
 64 64 64
 68 68 68
 73 73 73
 78 78 78
 83 83 83
 88 88 88
 94 94 94
 100 100 100
 106 106 106
 112 112 112
 118 118 118
 124 124 124
 130 130 130
 136 136 136
 141 141 141
 147 147 147
 153 153 153
 159 159 159
 165 165 165
 170 170 170
 175 175 175
 179 179 179
 182 182 182
 185 185 185
 188 188 188
 189 189 189
 191 191 191
 191 191 191
 191 191 191
 190 190 190
 189 189 189
 187 187 187
 184 184 184
 181 181 181
 177 177 177
 172 172 172
 168 168 168
 162 162 162
 157 157 157
 151 151 151
 144 144 144
 138 138 138
 131 131 131
 124 124 124
 117 117 117
 109 109 109
 102 102 102
 95 95 95
 88 88 88
 82 82 82
 75 75 75
 69 69 69
 63 63 63
 57 57 57
 52 52 52
 47 47 47
 43 43 43
 39 39 39
 36 36 36
 33 33 33
 31 31 31
 29 29 29
 28 28 28
 28 28 28
 28 28 28
 29 29 29
 30 30 30
 32 32 32
 34 34 34
 37 37 37
 41 41 41
 45 45 45
 49 49 49
 54 54 54
 60 60 60
 66 66 66
 72 72 72
 78 78 78
 85 85 85
 92 92 92
 99 99 99
 106 106 106
 113 113 113
 120 120 120
 127 127 127
 134 134 134
 141 141 141
 147 147 147
 153 153 153
 160 160 160
 167 167 167
 172 172 172
 178 178 178
 182 182 182
 187 187 187
 190 190 190
 193 193 193
 195 195 195
 196 196 196
 197 197 197
 196 196 196
 196 196 196
 194 194 194
 192 192 192
 188 188 188
 185 185 185
 180 180 180
 175 175 175
 170 170 170
 164 164 164
 157 157 157
 150 150 150
 143 143 143
 135 135 135
 127 127 127
 119 119 119
 111 111 111
 103 103 103
 95 95 95
 87 87 87
 79 79 79
 71 71 71
 64 64 64
 57 57 57
 50 50 50
 44 44 44
 38 38 38
 32 32 32
 27 27 27
 23 23 23
 19 19 19
 16 16 16
 13 13 13
 12 12 12
 10 10 10
 10 10 10
 10 10 10
 11 11 11
 12 12 12
 15 15 15
 17 17 17
 21 21 21
 25 25 25
 30 30 30
 35 35 35
 40 40 40
 47 47 47
 53 53 53
 60 60 60
 67 67 67
 75 75 75
 83 83 83
 91 91 91
 99 99 99
 107 107 107
 115 115 115
 123 123 123
 131 131 131
 139 139 139
 146 146 146
 152 152 152
 160 160 160
 167 167 167
 173 173 173
 179 179 179
 185 185 185
 189 189 189
 193 193 193
 196 196 196
 199 199 199
 200 200 200
 201 201 201
 200 200 200
 199 199 199
 198 198 198
 195 195 195
 191 191 191
 187 187 187
 182 182 182
 177 177 177
 170 170 170
 164 164 164
 156 156 156
 148 148 148
 140 140 140
 132 132 132
 123 123 123
 114 114 114
 105 105 105
 96 96 96
 87 87 87
 78 78 78
 69 69 69
 60 60 60
 52 52 52
 44 44 44
 37 37 37
 29 29 29
 23 23 23
 17 17 17
 11 11 11
 7 7 7
 2 2 2
 0 0 0
 0 0 0
 0 0 0
 0 0 0
 0 0 0
 0 0 0
 0 0 0
 0 0 0
 0 0 0
 0 0 0
 4 4 4
 9 9 9
 14 14 14
 20 20 20
 26 26 26
 33 33 33
 40 40 40
 48 48 48
 56 56 56
 65 65 65
 73 73 73
 82 82 82
 91 91 91
 100 100 100
 109 109 109
 118 118 118
 127 127 127
 136 136 136
 144 144 144
 150 150 150
 158 158 158
 166 166 166
 173 173 173
 180 180 180
 185 185 185
 190 190 190
 195 195 195
 198 198 198
 201 201 201
 202 202 202
 203 203 203
 203 203 203
 202 202 202
 199 199 199
 197 197 197
 193 193 193
 188 188 188
 183 183 183
 176 176 176
 170 170 170
 162 162 162
 154 154 154
 146 146 146
 137 137 137
 127 127 127
 118 118 118
 108 108 108
 98 98 98
 88 88 88
 78 78 78
 68 68 68
 58 58 58
 49 49 49
 40 40 40
 31 31 31
 23 23 23
 15 15 15
 8 8 8
 1 1 1
 0 0 0
 0 0 0
 0 0 0
 0 0 0
 0 0 0
 0 0 0
 0 0 0
 0 0 0
 0 0 0
 0 0 0
 0 0 0
 0 0 0
 0 0 0
 0 0 0
 0 0 0
 0 0 0
 4 4 4
 11 11 11
 19 19 19
 27 27 27
 35 35 35
 44 44 44
 53 53 53
 63 63 63
 73 73 73
 83 83 83
 93 93 93
 103 103 103
 112 112 112
 122 122 122
 132 132 132
 141 141 141
 146 146 146
 155 155 155
 163 163 163
 171 171 171
 178 178 178
 184 184 184
 190 190 190
 195 195 195
 198 198 198
 201 201 201
 203 203 203
 203 203 203
 203 203 203
 202 202 202
 200 200 200
 197 197 197
 192 192 192
 187 187 187
 182 182 182
 175 175 175
 167 167 167
 159 159 159
 151 151 151
 141 141 141
 132 132 132
 122 122 122
 111 111 111
 101 101 101
 90 90 90
 79 79 79
 68 68 68
 58 58 58
 47 47 47
 37 37 37
 27 27 27
 18 18 18
 9 9 9
 1 1 1
 0 0 0
 0 0 0
 0 0 0
 0 0 0
 0 0 0
 0 0 0
 0 0 0
 0 0 0
 0 0 0
 0 0 0
 0 0 0
 0 0 0
 0 0 0
 0 0 0
 0 0 0
 0 0 0
 0 0 0
 0 0 0
 0 0 0
 0 0 0
 5 5 5
 13 13 13
 23 23 23
 32 32 32
 42 42 42
 52 52 52
 63 63 63
 73 73 73
 84 84 84
 95 95 95
 106 106 106
 116 116 116
 126 126 126
 136 136 136
 141 141 141
 150 150 150
 159 159 159
 168 168 168
 175 175 175
 182 182 182
 188 188 188
 193 193 193
 197 197 197
 200 200 200
 201 201 201
 202 202 202
 202 202 202
 201 201 201
 198 198 198
 195 195 195
 190 190 190
 185 185 185
 179 179 179
 172 172 172
 164 164 164
 155 155 155
 146 146 146
 136 136 136
 126 126 126
 115 115 115
 104 104 104
 93 93 93
 81 81 81
 70 70 70
 58 58 58
 47 47 47
 36 36 36
 25 25 25
 15 15 15
 5 5 5
 0 0 0
 0 0 0
 0 0 0
 0 0 0
 0 0 0
 0 0 0
 0 0 0
 0 0 0
 0 0 0
 0 0 0
 0 0 0
 0 0 0
 0 0 0
 0 0 0
 0 0 0
 0 0 0
 0 0 0
 0 0 0
 0 0 0
 0 0 0
 0 0 0
 0 0 0
 0 0 0
 0 0 0
 10 10 10
 20 20 20
 30 30 30
 41 41 41
 52 52 52
 64 64 64
 75 75 75
 87 87 87
 98 98 98
 109 109 109
 120 120 120
 131 131 131
 134 134 134
 145 145 145
 154 154 154
 163 163 163
 171 171 171
 178 178 178
 184 184 184
 189 189 189
 193 193 193
 197 197 197
 198 198 198
 199 199 199
 199 199 199
 198 198 198
 195 195 195
 192 192 192
 187 187 187
 181 181 181
 175 175 175
 167 167 167
 159 159 159
 150 150 150
 140 140 140
 129 129 129
 119 119 119
 107 107 107
 96 96 96
 84 84 84
 72 72 72
 60 60 60
 48 48 48
 36 36 36
 24 24 24
 13 13 13
 2 2 2
 0 0 0
 0 0 0
 0 0 0
 0 0 0
 0 0 0
 0 0 0
 0 0 0
 0 0 0
 0 0 0
 0 0 0
 0 0 0
 0 0 0
 0 0 0
 0 0 0
 0 0 0
 0 0 0
 0 0 0
 0 0 0
 0 0 0
 0 0 0
 0 0 0
 0 0 0
 0 0 0
 0 0 0
 0 0 0
 0 0 0
 7 7 7
 18 18 18
 30 30 30
 41 41 41
 53 53 53
 65 65 65
 77 77 77
 89 89 89
 101 101 101
 113 113 113
 124 124 124
 127 127 127
 138 138 138
 148 148 148
 157 157 157
 165 165 165
 172 172 172
 179 179 179
 184 184 184
 189 189 189
 192 192 192
 194 194 194
 195 195 195
 194 194 194
 193 193 193
 190 190 190
 187 187 187
 182 182 182
 176 176 176
 169 169 169
 161 161 161
 152 152 152
 143 143 143
 133 133 133
 122 122 122
 110 110 110
 99 99 99
 87 87 87
 74 74 74
 62 62 62
 49 49 49
 37 37 37
 24 24 24
 12 12 12
 1 1 1
 0 0 0
 0 0 0
 0 0 0
 0 0 0
 0 0 0
 0 0 0
 0 0 0
 0 0 0
 0 0 0
 0 0 0
 0 0 0
 0 0 0
 0 0 0
 0 0 0
 0 0 0
 0 0 0
 0 0 0
 0 0 0
 0 0 0
 0 0 0
 0 0 0
 0 0 0
 0 0 0
 0 0 0
 0 0 0
 0 0 0
 0 0 0
 0 0 0
 6 6 6
 18 18 18
 30 30 30
 43 43 43
 55 55 55
 68 68 68
 80 80 80
 92 92 92
 104 104 104
 116 116 116
 119 119 119
 130 130 130
 140 140 140
 149 149 149
 158 158 158
 165 165 165
 172 172 172
 178 178 178
 182 182 182
 185 185 185
 188 188 188
 189 189 189
 188 188 188
 187 187 187
 184 184 184
 180 180 180
 175 175 175
 169 169 169
 162 162 162
 154 154 154
 145 145 145
 135 135 135
 124 124 124
 113 113 113
 101 101 101
 89 89 89
 77 77 77
 64 64 64
 51 51 51
 38 38 38
 25 25 25
 13 13 13
 0 0 0
 0 0 0
 0 0 0
 0 0 0
 0 0 0
 0 0 0
 0 0 0
 0 0 0
 0 0 0
 0 0 0
 0 0 0
 0 0 0
 0 0 0
 0 0 0
 0 0 0
 0 0 0
 0 0 0
 0 0 0
 0 0 0
 0 0 0
 0 0 0
 0 0 0
 0 0 0
 0 0 0
 0 0 0
 0 0 0
 0 0 0
 0 0 0
 0 0 0
 0 0 0
 0 0 0
 6 6 6
 19 19 19
 32 32 32
 44 44 44
 57 57 57
 70 70 70
 83 83 83
 95 95 95
 107 107 107
 109 109 109
 120 120 120
 131 131 131
 140 140 140
 149 149 149
 157 157 157
 164 164 164
 170 170 170
 174 174 174
 178 178 178
 180 180 180
 181 181 181
 180 180 180
 179 179 179
 176 176 176
 172 172 172
 167 167 167
 161 161 161
 153 153 153
 145 145 145
 136 136 136
 126 126 126
 115 115 115
 104 104 104
 92 92 92
 79 79 79
 66 66 66
 53 53 53
 40 40 40
 27 27 27
 14 14 14
 1 1 1
 0 0 0
 0 0 0
 0 0 0
 0 0 0
 0 0 0
 0 0 0
 0 0 0
 0 0 0
 0 0 0
 0 0 0
 0 0 0
 0 0 0
 0 0 0
 0 0 0
 0 0 0
 0 0 0
 0 0 0
 0 0 0
 0 0 0
 0 0 0
 0 0 0
 0 0 0
 0 0 0
 0 0 0
 0 0 0
 0 0 0
 0 0 0
 0 0 0
 0 0 0
 0 0 0
 0 0 0
 0 0 0
 7 7 7
 20 20 20
 33 33 33
 47 47 47
 60 60 60
 73 73 73
 85 85 85
 97 97 97
 99 99 99
 110 110 110
 121 121 121
 131 131 131
 139 139 139
 147 147 147
 154 154 154
 160 160 160
 165 165 165
 168 168 168
 170 170 170
 171 171 171
 171 171 171
 170 170 170
 167 167 167
 163 163 163
 158 158 158
 151 151 151
 144 144 144
 135 135 135
 126 126 126
 116 116 116
 105 105 105
 93 93 93
 81 81 81
 68 68 68
 56 56 56
 42 42 42
 29 29 29
 16 16 16
 2 2 2
 0 0 0
 0 0 0
 0 0 0
 0 0 0
 0 0 0
 0 0 0
 0 0 0
 0 0 0
 0 0 0
 0 0 0
 0 0 0
 0 0 0
 0 0 0
 0 0 0
 0 0 0
 0 0 0
 0 0 0
 0 0 0
 0 0 0
 0 0 0
 0 0 0
 0 0 0
 0 0 0
 0 0 0
 0 0 0
 0 0 0
 0 0 0
 0 0 0
 0 0 0
 0 0 0
 0 0 0
 0 0 0
 0 0 0
 0 0 0
 9 9 9
 22 22 22
 35 35 35
 49 49 49
 62 62 62
 75 75 75
 87 87 87
 88 88 88
 99 99 99
 110 110 110
 120 120 120
 129 129 129
 137 137 137
 144 144 144
 149 149 149
 154 154 154
 158 158 158
 160 160 160
 161 161 161
 160 160 160
 159 159 159
 156 156 156
 152 152 152
 147 147 147
 140 140 140
 133 133 133
 124 124 124
 115 115 115
 105 105 105
 94 94 94
 82 82 82
 70 70 70
 57 57 57
 44 44 44
 31 31 31
 17 17 17
 4 4 4
 0 0 0
 0 0 0
 0 0 0
 0 0 0
 0 0 0
 0 0 0
 0 0 0
 0 0 0
 0 0 0
 0 0 0
 0 0 0
 0 0 0
 0 0 0
 0 0 0
 0 0 0
 0 0 0
 0 0 0
 0 0 0
 0 0 0
 0 0 0
 0 0 0
 0 0 0
 0 0 0
 0 0 0
 0 0 0
 0 0 0
 0 0 0
 0 0 0
 0 0 0
 0 0 0
 0 0 0
 0 0 0
 0 0 0
 0 0 0
 0 0 0
 0 0 0
 10 10 10
 24 24 24
 37 37 37
 50 50 50
 63 63 63
 76 76 76
 76 76 76
 87 87 87
 98 98 98
 108 108 108
 117 117 117
 125 125 125
 132 132 132
 137 137 137
 142 142 142
 146 146 146
 148 148 148
 149 149 149
 148 148 148
 147 147 147
 144 144 144
 140 140 140
 135 135 135
 128 128 128
 121 121 121
 113 113 113
 103 103 103
 93 93 93
 82 82 82
 70 70 70
 58 58 58
 45 45 45
 32 32 32
 19 19 19
 6 6 6
 0 0 0
 0 0 0
 0 0 0
 0 0 0
 0 0 0
 0 0 0
 0 0 0
 0 0 0
 0 0 0
 0 0 0
 0 0 0
 0 0 0
 0 0 0
 0 0 0
 0 0 0
 0 0 0
 0 0 0
 0 0 0
 0 0 0
 0 0 0
 0 0 0
 0 0 0
 0 0 0
 0 0 0
 0 0 0
 0 0 0
 0 0 0
 0 0 0
 0 0 0
 0 0 0
 0 0 0
 0 0 0
 0 0 0
 0 0 0
 0 0 0
 0 0 0
 0 0 0
 0 0 0
 12 12 12
 26 26 26
 39 39 39
 52 52 52
 64 64 64
 63 63 63
 75 75 75
 85 85 85
 95 95 95
 104 104 104
 112 112 112
 119 119 119
 124 124 124
 129 129 129
 132 132 132
 135 135 135
 136 136 136
 135 135 135
 134 134 134
 131 131 131
 127 127 127
 122 122 122
 115 115 115
 108 108 108
 100 100 100
 90 90 90
 80 80 80
 69 69 69
 58 58 58
 46 46 46
 33 33 33
 20 20 20
 7 7 7
 0 0 0
 0 0 0
 0 0 0
 0 0 0
 0 0 0
 0 0 0
 0 0 0
 0 0 0
 0 0 0
 0 0 0
 0 0 0
 0 0 0
 0 0 0
 0 0 0
 0 0 0
 0 0 0
 0 0 0
 0 0 0
 0 0 0
 0 0 0
 0 0 0
 0 0 0
 0 0 0
 0 0 0
 0 0 0
 0 0 0
 0 0 0
 0 0 0
 0 0 0
 0 0 0
 0 0 0
 0 0 0
 0 0 0
 0 0 0
 0 0 0
 0 0 0
 0 0 0
 0 0 0
 0 0 0
 0 0 0
 14 14 14
 27 27 27
 39 39 39
 52 52 52
 51 51 51
 62 62 62
 72 72 72
 81 81 81
 90 90 90
 98 98 98
 105 105 105
 110 110 110
 115 115 115
 118 118 118
 120 120 120
 121 121 121
 121 121 121
 119 119 119
 117 117 117
 113 113 113
 108 108 108
 102 102 102
 94 94 94
 86 86 86
 77 77 77
 67 67 67
 56 56 56
 45 45 45
 33 33 33
 21 21 21
 8 8 8
 0 0 0
 0 0 0
 0 0 0
 0 0 0
 0 0 0
 0 0 0
 0 0 0
 0 0 0
 0 0 0
 0 0 0
 0 0 0
 0 0 0
 0 0 0
 0 0 0
 0 0 0
 0 0 0
 0 0 0
 0 0 0
 0 0 0
 0 0 0
 0 0 0
 0 0 0
 0 0 0
 0 0 0
 0 0 0
 0 0 0
 0 0 0
 0 0 0
 0 0 0
 0 0 0
 0 0 0
 0 0 0
 0 0 0
 0 0 0
 0 0 0
 0 0 0
 0 0 0
 0 0 0
 0 0 0
 0 0 0
 0 0 0
 2 2 2
 14 14 14
 27 27 27
 39 39 39
 37 37 37
 48 48 48
 58 58 58
 67 67 67
 76 76 76
 83 83 83
 90 90 90
 95 95 95
 100 100 100
 103 103 103
 105 105 105
 106 106 106
 106 106 106
 104 104 104
 102 102 102
 98 98 98
 93 93 93
 87 87 87
 80 80 80
 72 72 72
 63 63 63
 53 53 53
 43 43 43
 32 32 32
 20 20 20
 8 8 8
 0 0 0
 0 0 0
 0 0 0
 0 0 0
 0 0 0
 0 0 0
 0 0 0
 0 0 0
 0 0 0
 0 0 0
 0 0 0
 0 0 0
 0 0 0
 0 0 0
 0 0 0
 0 0 0
 0 0 0
 0 0 0
 0 0 0
 0 0 0
 0 0 0
 0 0 0
 0 0 0
 0 0 0
 0 0 0
 0 0 0
 0 0 0
 0 0 0
 0 0 0
 0 0 0
 0 0 0
 0 0 0
 0 0 0
 0 0 0
 0 0 0
 0 0 0
 0 0 0
 0 0 0
 0 0 0
 0 0 0
 0 0 0
 0 0 0
 0 0 0
 2 2 2
 14 14 14
 26 26 26
 24 24 24
 34 34 34
 44 44 44
 53 53 53
 61 61 61
 68 68 68
 75 75 75
 80 80 80
 84 84 84
 87 87 87
 89 89 89
 90 90 90
 90 90 90
 88 88 88
 86 86 86
 82 82 82
 77 77 77
 72 72 72
 65 65 65
 57 57 57
 49 49 49
 39 39 39
 29 29 29
 19 19 19
 7 7 7
 0 0 0
 0 0 0
 0 0 0
 0 0 0
 0 0 0
 0 0 0
 0 0 0
 0 0 0
 0 0 0
 0 0 0
 0 0 0
 0 0 0
 0 0 0
 0 0 0
 0 0 0
 0 0 0
 0 0 0
 0 0 0
 0 0 0
 0 0 0
 0 0 0
 0 0 0
 0 0 0
 0 0 0
 0 0 0
 0 0 0
 0 0 0
 0 0 0
 0 0 0
 0 0 0
 0 0 0
 0 0 0
 0 0 0
 0 0 0
 0 0 0
 0 0 0
 0 0 0
 0 0 0
 0 0 0
 0 0 0
 0 0 0
 0 0 0
 0 0 0
 0 0 0
 0 0 0
 1 1 1
 13 13 13
 10 10 10
 20 20 20
 29 29 29
 38 38 38
 46 46 46
 53 53 53
 59 59 59
 64 64 64
 68 68 68
 71 71 71
 73 73 73
 74 74 74
 73 73 73
 72 72 72
 69 69 69
 66 66 66
 61 61 61
 56 56 56
 49 49 49
 42 42 42
 34 34 34
 25 25 25
 15 15 15
 5 5 5
 0 0 0
 0 0 0
 0 0 0
 0 0 0
 0 0 0
 0 0 0
 0 0 0
 0 0 0
 0 0 0
 0 0 0
 0 0 0
 0 0 0
 0 0 0
 0 0 0
 0 0 0
 0 0 0
 0 0 0
 0 0 0
 0 0 0
 0 0 0
 0 0 0
 0 0 0
 0 0 0
 0 0 0
 0 0 0
 0 0 0
 0 0 0
 0 0 0
 0 0 0
 0 0 0
 0 0 0
 0 0 0
 0 0 0
 0 0 0
 0 0 0
 0 0 0
 0 0 0
 0 0 0
 0 0 0
 0 0 0
 0 0 0
 0 0 0
 0 0 0
 0 0 0
 0 0 0
 0 0 0
 0 0 0
 0 0 0
 0 0 0
 5 5 5
 14 14 14
 22 22 22
 30 30 30
 36 36 36
 42 42 42
 47 47 47
 51 51 51
 54 54 54
 56 56 56
 56 56 56
 56 56 56
 55 55 55
 53 53 53
 49 49 49
 45 45 45
 40 40 40
 33 33 33
 26 26 26
 19 19 19
 10 10 10
 1 1 1
 0 0 0
 0 0 0
 0 0 0
 0 0 0
 0 0 0
 0 0 0
 0 0 0
 0 0 0
 0 0 0
 0 0 0
 0 0 0
 0 0 0
 0 0 0
 0 0 0
 0 0 0
 0 0 0
 0 0 0
 0 0 0
 0 0 0
 0 0 0
 0 0 0
 0 0 0
 0 0 0
 0 0 0
 0 0 0
 0 0 0
 0 0 0
 0 0 0
 0 0 0
 0 0 0
 0 0 0
 0 0 0
 0 0 0
 0 0 0
 0 0 0
 0 0 0
 0 0 0
 0 0 0
 0 0 0
 0 0 0
 0 0 0
 0 0 0
 0 0 0
 0 0 0
 0 0 0
 0 0 0
 0 0 0
 0 0 0
 0 0 0
 0 0 0
 0 0 0
 0 0 0
 7 7 7
 14 14 14
 20 20 20
 26 26 26
 30 30 30
 34 34 34
 36 36 36
 38 38 38
 39 39 39
 39 39 39
 37 37 37
 35 35 35
 32 32 32
 28 28 28
 23 23 23
 17 17 17
 11 11 11
 3 3 3
 0 0 0
 0 0 0
 0 0 0
 0 0 0
 0 0 0
 0 0 0
 0 0 0
 0 0 0
 0 0 0
 0 0 0
 0 0 0
 0 0 0
 0 0 0
 0 0 0
 0 0 0
 0 0 0
 0 0 0
 0 0 0
 0 0 0
 0 0 0
 0 0 0
 0 0 0
 0 0 0
 0 0 0
 0 0 0
 0 0 0
 0 0 0
 0 0 0
 0 0 0
 0 0 0
 0 0 0
 0 0 0
 0 0 0
 0 0 0
 0 0 0
 0 0 0
 0 0 0
 0 0 0
 0 0 0
 0 0 0
 0 0 0
 0 0 0
 0 0 0
 0 0 0
 0 0 0
 0 0 0
 0 0 0
 0 0 0
 0 0 0
 0 0 0
 0 0 0
 0 0 0
 0 0 0
 0 0 0
 0 0 0
 0 0 0
 4 4 4
 9 9 9
 13 13 13
 16 16 16
 19 19 19
 20 20 20
 21 21 21
 21 21 21
 20 20 20
 18 18 18
 15 15 15
 11 11 11
 7 7 7
 1 1 1
 0 0 0
 0 0 0
 0 0 0
 0 0 0
 0 0 0
 0 0 0
 0 0 0
 0 0 0
 0 0 0
 0 0 0
 0 0 0
 0 0 0
 0 0 0
 0 0 0
 0 0 0
 0 0 0
 0 0 0
 0 0 0
 0 0 0
 0 0 0
 0 0 0
 0 0 0
 0 0 0
 0 0 0
 0 0 0
 0 0 0
 0 0 0
 0 0 0
 0 0 0
 0 0 0
 0 0 0
 0 0 0
 0 0 0
 0 0 0
 0 0 0
 0 0 0
 0 0 0
 0 0 0
 0 0 0
 0 0 0
 0 0 0
 0 0 0
 0 0 0
 0 0 0
 0 0 0
 0 0 0
 0 0 0
 0 0 0
 0 0 0
 0 0 0
 0 0 0
 0 0 0
 0 0 0
 0 0 0
 0 0 0
 0 0 0
 0 0 0
 0 0 0
 0 0 0
 0 0 0
 0 0 0
 0 0 0
 1 1 1
 3 3 3
 3 3 3
 3 3 3
 2 2 2
 0 0 0
 0 0 0
 0 0 0
 0 0 0
 0 0 0
 0 0 0
 0 0 0
 0 0 0
 0 0 0
 0 0 0
 0 0 0
 0 0 0
 0 0 0
 0 0 0
 0 0 0
 0 0 0
 0 0 0
 0 0 0
 0 0 0
 0 0 0
 0 0 0
 0 0 0
 0 0 0
 0 0 0
 0 0 0
 0 0 0
 0 0 0
 0 0 0
 0 0 0
 0 0 0
 0 0 0
 0 0 0
 0 0 0
 0 0 0
 0 0 0
 0 0 0
 0 0 0
 0 0 0
 0 0 0
 0 0 0
 0 0 0
 0 0 0
 0 0 0
 0 0 0
 0 0 0
 0 0 0
 0 0 0
 0 0 0
 0 0 0
 0 0 0
 0 0 0
 0 0 0
 0 0 0
 0 0 0
 0 0 0
 0 0 0
 0 0 0
 0 0 0
 0 0 0
 0 0 0
 0 0 0
 0 0 0
 0 0 0
 0 0 0
 0 0 0
 0 0 0
 0 0 0
 0 0 0
 0 0 0
 0 0 0
 0 0 0
 0 0 0
 0 0 0
 0 0 0
 0 0 0
 0 0 0
 0 0 0
 0 0 0
 0 0 0
 0 0 0
 0 0 0
 0 0 0
 0 0 0
 0 0 0
 0 0 0
 0 0 0
 0 0 0
 0 0 0
 0 0 0
 0 0 0
 0 0 0
 0 0 0
 0 0 0
 0 0 0
 0 0 0
 0 0 0
 0 0 0
 0 0 0
 0 0 0
 0 0 0
 0 0 0
 0 0 0
 0 0 0
 0 0 0
 0 0 0
 0 0 0
 0 0 0
 0 0 0
 0 0 0
 0 0 0
 0 0 0
 0 0 0
 0 0 0
 0 0 0
 0 0 0
 0 0 0
 0 0 0
 0 0 0
 0 0 0
 0 0 0
 0 0 0
 0 0 0
 0 0 0
 0 0 0
 0 0 0
 0 0 0
 0 0 0
 0 0 0
 0 0 0
 0 0 0
 0 0 0
 0 0 0
 0 0 0
 0 0 0
 0 0 0
 0 0 0
 0 0 0
 0 0 0
 0 0 0
 0 0 0
 0 0 0
 0 0 0
 0 0 0
 0 0 0
 0 0 0
 0 0 0
 0 0 0
 0 0 0
 0 0 0
 0 0 0
 0 0 0
 0 0 0
 0 0 0
 0 0 0
 0 0 0
 0 0 0
 0 0 0
 0 0 0
 0 0 0
 0 0 0
 0 0 0
 0 0 0
 0 0 0
 0 0 0
 0 0 0
 0 0 0
 0 0 0
 0 0 0
 0 0 0
 0 0 0
 0 0 0
 0 0 0
 0 0 0
 0 0 0
 0 0 0
 0 0 0
 0 0 0
 0 0 0
 0 0 0
 0 0 0
 0 0 0
 0 0 0
 0 0 0
 0 0 0
 0 0 0
 0 0 0
 0 0 0
 0 0 0
 0 0 0
 0 0 0
 0 0 0
 0 0 0
 0 0 0
 0 0 0
 0 0 0
 0 0 0
 0 0 0
 0 0 0
 0 0 0
 0 0 0
 0 0 0
 0 0 0
 0 0 0
 0 0 0
 0 0 0
 0 0 0
 0 0 0
 0 0 0
 0 0 0
 0 0 0
 0 0 0
 0 0 0
 0 0 0
 0 0 0
 0 0 0
 0 0 0
 0 0 0
 0 0 0
 0 0 0
 0 0 0
 0 0 0
 0 0 0
 0 0 0
 0 0 0
 0 0 0
 0 0 0
 0 0 0
 0 0 0
 0 0 0
 0 0 0
 0 0 0
 0 0 0
 0 0 0
 0 0 0
 0 0 0
 0 0 0
 0 0 0
 0 0 0
 0 0 0
 0 0 0
 0 0 0
 0 0 0
 0 0 0
 0 0 0
 0 0 0
 0 0 0
 0 0 0
 0 0 0
 0 0 0
 0 0 0
 0 0 0
 0 0 0
 0 0 0
 0 0 0
 0 0 0
 0 0 0
 0 0 0
 0 0 0
 0 0 0
 0 0 0
 0 0 0
 0 0 0
 0 0 0
 0 0 0
 0 0 0
 0 0 0
 0 0 0
 0 0 0
 0 0 0
 0 0 0
 0 0 0
 0 0 0
 0 0 0
 0 0 0
 0 0 0
 0 0 0
 0 0 0
 0 0 0
 0 0 0
 0 0 0
 0 0 0
 0 0 0
 0 0 0
 0 0 0
 0 0 0
 0 0 0
 0 0 0
 0 0 0
 0 0 0
 0 0 0
 0 0 0
 0 0 0
 0 0 0
 0 0 0
 0 0 0
 0 0 0
 0 0 0
 0 0 0
 0 0 0
 0 0 0
 0 0 0
 0 0 0
 0 0 0
 0 0 0
 0 0 0
 0 0 0
 0 0 0
 0 0 0
 0 0 0
 0 0 0
 0 0 0
 0 0 0
 0 0 0
 0 0 0
 0 0 0
 0 0 0
 0 0 0
 0 0 0
 0 0 0
 0 0 0
 0 0 0
 0 0 0
 0 0 0
 0 0 0
 0 0 0
 0 0 0
 0 0 0
 0 0 0
 0 0 0
 0 0 0
 0 0 0
 0 0 0
 0 0 0
 0 0 0
 0 0 0
 0 0 0
 0 0 0
 0 0 0
 0 0 0
 0 0 0
 0 0 0
 0 0 0
 0 0 0
 0 0 0
 0 0 0
 0 0 0
 0 0 0
 0 0 0
 0 0 0
 0 0 0
 0 0 0
 0 0 0
 0 0 0
 0 0 0
 0 0 0
 0 0 0
 0 0 0
 0 0 0
 0 0 0
 0 0 0
 0 0 0
 0 0 0
 0 0 0
 0 0 0
 0 0 0
 0 0 0
 0 0 0
 0 0 0
 0 0 0
 0 0 0
 0 0 0
 0 0 0
 0 0 0
 0 0 0
 0 0 0
 0 0 0
 0 0 0
 0 0 0
 0 0 0
 0 0 0
 0 0 0
 0 0 0
 0 0 0
 0 0 0
 0 0 0
 0 0 0
 0 0 0
 0 0 0
 0 0 0
 0 0 0
 0 0 0
 0 0 0
 0 0 0
 0 0 0
 0 0 0
 0 0 0
 0 0 0
 0 0 0
 0 0 0
 0 0 0
 0 0 0
 0 0 0
 0 0 0
 0 0 0
 0 0 0
 0 0 0
 0 0 0
 0 0 0
 0 0 0
 0 0 0
 0 0 0
 0 0 0
 0 0 0
 0 0 0
 0 0 0
 0 0 0
 0 0 0
 0 0 0
 0 0 0
 0 0 0
 0 0 0
 0 0 0
 0 0 0
 0 0 0
 0 0 0
 0 0 0
 0 0 0
 0 0 0
 0 0 0
 0 0 0
 0 0 0
 0 0 0
 0 0 0
 0 0 0
 0 0 0
 0 0 0
 0 0 0
 0 0 0
 0 0 0
 0 0 0
 0 0 0
 0 0 0
 0 0 0
 0 0 0
 0 0 0
 0 0 0
 0 0 0
 0 0 0
 0 0 0
 0 0 0
 0 0 0
 0 0 0
 0 0 0
 0 0 0
 0 0 0
 0 0 0
 0 0 0
 0 0 0
 0 0 0
 0 0 0
 0 0 0
 0 0 0
 0 0 0
 0 0 0
 0 0 0
 0 0 0
 0 0 0
 0 0 0
 0 0 0
 0 0 0
 0 0 0
 0 0 0
 0 0 0
 0 0 0
 0 0 0
 0 0 0
 0 0 0
 0 0 0
 0 0 0
 0 0 0
 0 0 0
 0 0 0
 0 0 0
 0 0 0
 0 0 0
 0 0 0
 0 0 0
 0 0 0
 0 0 0
 0 0 0
 0 0 0
 0 0 0
 0 0 0
 0 0 0
 0 0 0
 0 0 0
 0 0 0
 0 0 0
 0 0 0
 0 0 0
 0 0 0
 0 0 0
 0 0 0
 0 0 0
 0 0 0
 0 0 0
 0 0 0
 0 0 0
 0 0 0
 0 0 0
 0 0 0
 0 0 0
 0 0 0
 0 0 0
 0 0 0
 0 0 0
 0 0 0
 0 0 0
 0 0 0
 0 0 0
 0 0 0
 0 0 0
 0 0 0
 0 0 0
 0 0 0
 0 0 0
 0 0 0
 0 0 0
 0 0 0
 0 0 0
 0 0 0
 0 0 0
 0 0 0
 0 0 0
 0 0 0
 0 0 0
 0 0 0
 0 0 0
 0 0 0
 0 0 0
 0 0 0
 0 0 0
 0 0 0
 0 0 0
 0 0 0
 0 0 0
 0 0 0
 0 0 0
 0 0 0
 0 0 0
 0 0 0
 0 0 0
 0 0 0
 0 0 0
 0 0 0
 0 0 0
 0 0 0
 0 0 0
 0 0 0
 0 0 0
 0 0 0
 0 0 0
 0 0 0
 0 0 0
 0 0 0
 0 0 0
 0 0 0
 0 0 0
 0 0 0
 0 0 0
 0 0 0
 0 0 0
 0 0 0
 0 0 0
 0 0 0
 0 0 0
 0 0 0
 0 0 0
 0 0 0
 0 0 0
 0 0 0
 0 0 0
 0 0 0
 0 0 0
 0 0 0
 0 0 0
 0 0 0
 0 0 0
 0 0 0
 0 0 0
 0 0 0
 0 0 0
 0 0 0
 0 0 0
 0 0 0
 0 0 0
 0 0 0
 0 0 0
 0 0 0
 0 0 0
 0 0 0
 0 0 0
 0 0 0
 0 0 0
 0 0 0
 0 0 0
 0 0 0
 0 0 0
 0 0 0
 0 0 0
 0 0 0
 0 0 0
 0 0 0
 0 0 0
 0 0 0
 0 0 0
 0 0 0
 0 0 0
 0 0 0
 0 0 0
 0 0 0
 0 0 0
 0 0 0
 0 0 0
 0 0 0
 0 0 0
 0 0 0
 0 0 0
 0 0 0
 0 0 0
 0 0 0
 0 0 0
 0 0 0
 0 0 0
 